<?xml version="1.0" encoding="UTF-8" standalone="no"?>
<svg
   xmlns:dc="http://purl.org/dc/elements/1.1/"
   xmlns:cc="http://creativecommons.org/ns#"
   xmlns:rdf="http://www.w3.org/1999/02/22-rdf-syntax-ns#"
   xmlns:svg="http://www.w3.org/2000/svg"
   xmlns="http://www.w3.org/2000/svg"
   version="1.1"
   id="svg2"
   height="300"
   width="300">
  <defs
     id="defs4" />
  <metadata
     id="metadata7">
    <rdf:RDF>
      <cc:Work
         rdf:about="">
        <dc:format>image/svg+xml</dc:format>
        <dc:type
           rdf:resource="http://purl.org/dc/dcmitype/StillImage" />
        <dc:title></dc:title>
      </cc:Work>
    </rdf:RDF>
  </metadata>
  <g
     transform="translate(0,-752.36218)"
     id="layer1">
    <g
       id="g8016">
      <rect
         style="fill:#000000;fill-opacity:1;stroke:none"
         id="rect11308"
         width="300"
         height="300"
         x="0"
         y="752.36218" />
      <g
         id="g7454">
        <g
           id="text4220-18"
           style="font-size:10px;font-style:normal;font-variant:normal;font-weight:normal;font-stretch:normal;line-height:125%;letter-spacing:0px;word-spacing:0px;fill:#ffffff;fill-opacity:1;stroke:none;font-family:DejaVu Sans;-inkscape-font-specification:DejaVu Sans" />
        <path
           id="path5165-8"
           transform="translate(0,752.36218)"
           d="M 150 97.5 C 148.47991 97.5 146.9598 97.554315 145.4375 97.6875 L 145.4375 97.699219 L 145.53125 98.71875 L 145.53125 98.730469 C 147.00835 98.603129 148.49 98.511719 150 98.511719 C 151.5101 98.511719 152.99165 98.603119 154.46875 98.730469 L 154.46875 98.71875 L 154.5625 97.699219 L 154.5625 97.6875 C 153.04015 97.554315 151.52009 97.5 150 97.5 z M 136.40625 99.28125 C 133.45415 100.07227 130.58242 101.11462 127.8125 102.40625 L 127.81641 102.41602 C 127.81509 102.41663 127.81382 102.41735 127.8125 102.41797 L 128.25 103.35547 C 130.9413 102.09822 133.73595 101.04285 136.65625 100.26172 L 136.6543 100.25 C 136.6549 100.24984 136.65564 100.25016 136.65625 100.25 L 136.40625 99.28125 z M 163.59375 99.28125 L 163.34375 100.25 C 163.34436 100.25016 163.3451 100.24984 163.3457 100.25 L 163.34375 100.26172 C 166.26395 101.04285 169.05868 102.09822 171.75 103.35547 L 172.1875 102.41797 C 172.18618 102.41735 172.18491 102.41663 172.18359 102.41602 L 172.1875 102.40625 C 169.4176 101.11462 166.54595 100.07227 163.59375 99.28125 z M 119.875 107 C 117.37145 108.753 115.03611 110.71389 112.875 112.875 L 113.59375 113.59375 C 115.70256 111.48494 117.99021 109.53165 120.4375 107.8125 L 119.875 107 z M 180.125 107 L 179.5625 107.8125 C 179.56442 107.81385 179.56644 107.81506 179.56836 107.81641 L 179.5625 107.82422 C 182.00979 109.54337 184.29744 111.49666 186.40625 113.60547 L 187.125 112.88672 C 187.12304 112.88476 187.1211 112.88281 187.11914 112.88086 L 187.125 112.875 C 184.9639 110.71389 182.6285 108.753 180.125 107 z M 107 119.875 C 105.247 122.37855 103.69788 125.04258 102.40625 127.8125 L 102.41016 127.81445 C 102.40868 127.81762 102.40773 127.82105 102.40625 127.82422 L 103.34375 128.26172 C 104.62315 125.52295 106.091 122.89993 107.8125 120.44922 L 107.80664 120.44531 C 107.80851 120.44265 107.81063 120.44016 107.8125 120.4375 L 107 119.875 z M 193 119.875 L 192.1875 120.4375 C 192.18937 120.44016 192.19149 120.44265 192.19336 120.44531 L 192.1875 120.44922 C 193.90905 122.89993 195.37681 125.52295 196.65625 128.26172 L 197.59375 127.82422 C 197.59227 127.82105 197.59132 127.81762 197.58984 127.81445 L 197.59375 127.8125 C 196.30215 125.04258 194.753 122.37855 193 119.875 z M 99.28125 136.40625 C 98.49023 139.35838 97.95387 142.39286 97.6875 145.4375 L 97.689453 145.4375 C 97.689108 145.44144 97.687845 145.44528 97.6875 145.44922 L 98.71875 145.54297 C 98.98045 142.50645 99.484201 139.53085 100.25 136.66797 L 100.24805 136.66797 C 100.24906 136.66417 100.24898 136.66005 100.25 136.65625 L 99.28125 136.40625 z M 200.71875 136.40625 L 199.75 136.65625 C 199.75102 136.66005 199.75094 136.66417 199.75195 136.66797 L 199.75 136.66797 C 200.51579 139.53085 201.01947 142.50645 201.28125 145.54297 L 202.3125 145.44922 C 202.31216 145.44528 202.31089 145.44144 202.31055 145.4375 L 202.3125 145.4375 C 202.0461 142.39286 201.50975 139.35838 200.71875 136.40625 z M 98.71875 154.46875 L 97.6875 154.5625 C 97.687844 154.56643 97.689108 154.57028 97.689453 154.57422 L 97.6875 154.57422 C 97.9539 157.61886 98.49025 160.65334 99.28125 163.60547 L 100.25 163.35547 C 100.24898 163.35166 100.24906 163.34756 100.24805 163.34375 L 100.25 163.34375 C 99.48421 160.48087 98.98053 157.50527 98.71875 154.46875 z M 201.28125 154.46875 C 201.01955 157.50527 200.5158 160.48087 199.75 163.34375 L 199.75195 163.34375 C 199.75094 163.34756 199.75102 163.35166 199.75 163.35547 L 200.71875 163.60547 C 201.50977 160.65334 202.04613 157.61886 202.3125 154.57422 L 202.31055 154.57422 C 202.31089 154.57028 202.31216 154.56643 202.3125 154.5625 L 201.28125 154.46875 z M 103.34375 171.75 L 102.40625 172.1875 C 102.40773 172.19067 102.40868 172.1941 102.41016 172.19727 L 102.40625 172.19922 C 103.69785 174.96914 105.247 177.63317 107 180.13672 L 107.8125 179.57422 C 107.81063 179.57156 107.80851 179.56907 107.80664 179.56641 L 107.8125 179.5625 C 106.09095 177.11179 104.62319 174.48877 103.34375 171.75 z M 196.65625 171.75 C 195.37685 174.48877 193.909 177.11179 192.1875 179.5625 L 192.19336 179.56641 C 192.19149 179.56907 192.18937 179.57156 192.1875 179.57422 L 193 180.13672 C 194.753 177.63317 196.30212 174.96914 197.59375 172.19922 L 197.58984 172.19727 C 197.59132 172.1941 197.59227 172.19067 197.59375 172.1875 L 196.65625 171.75 z M 113.59375 186.40625 L 112.875 187.125 C 112.87695 187.12695 112.8789 187.12891 112.88086 187.13086 L 112.875 187.13672 C 115.0361 189.29783 117.3715 191.25872 119.875 193.01172 L 120.4375 192.19922 C 120.43558 192.19787 120.43356 192.19666 120.43164 192.19531 L 120.4375 192.1875 C 117.99021 190.46835 115.70256 188.51506 113.59375 186.40625 z M 186.40625 186.41797 C 184.29744 188.52678 182.00979 190.48007 179.5625 192.19922 L 180.125 193.01172 C 182.62855 191.25872 184.96389 189.29783 187.125 187.13672 L 186.40625 186.41797 z M 128.25 196.65625 L 127.8125 197.59375 C 127.81382 197.59437 127.81509 197.59509 127.81641 197.5957 L 127.8125 197.60547 C 130.5824 198.8971 133.45405 199.93945 136.40625 200.73047 L 136.65625 199.76172 C 136.65564 199.76156 136.6549 199.76188 136.6543 199.76172 L 136.65625 199.75 C 133.73605 198.96887 130.94132 197.9135 128.25 196.65625 z M 171.75 196.65625 C 169.0587 197.9135 166.26405 198.96887 163.34375 199.75 L 163.3457 199.76172 C 163.3451 199.76188 163.34436 199.76156 163.34375 199.76172 L 163.59375 200.73047 C 166.54585 199.93945 169.41758 198.8971 172.1875 197.60547 L 172.18359 197.5957 C 172.18491 197.59509 172.18618 197.59437 172.1875 197.59375 L 171.75 196.65625 z M 145.53125 201.28125 L 145.53125 201.29297 L 145.4375 202.3125 L 145.4375 202.32422 C 146.9598 202.4574 148.47991 202.51172 150 202.51172 C 151.52009 202.51172 153.0402 202.45742 154.5625 202.32422 L 154.5625 202.3125 L 154.46875 201.29297 L 154.46875 201.28125 C 152.99175 201.40859 151.51 201.5 150 201.5 C 148.4899 201.5 147.00835 201.4086 145.53125 201.28125 z "
           style="fill:#ffffff;fill-opacity:1;stroke:none" />
      </g>
    </g>
    <path
       id="rect11308-1"
       d="m -1.25e-6,752.36218 0,300.00002 300.00000125,0 0,-300.00002 -300.00000125,0 z M 150,797.36218 c 57.9899,0 105,47.0101 105,105 0,57.9899 -47.0101,105.00002 -105,105.00002 -57.989902,0 -105.000002,-47.01012 -105.000002,-105.00002 0,-57.9899 47.0101,-105 105.000002,-105 z"
       style="fill:#000000;fill-opacity:1;stroke:none" />
  </g>
</svg>
