<?xml version="1.0" encoding="UTF-8" standalone="no"?>
<svg
   xmlns:dc="http://purl.org/dc/elements/1.1/"
   xmlns:cc="http://creativecommons.org/ns#"
   xmlns:rdf="http://www.w3.org/1999/02/22-rdf-syntax-ns#"
   xmlns:svg="http://www.w3.org/2000/svg"
   xmlns="http://www.w3.org/2000/svg"
   version="1.1"
   id="svg2"
   height="300"
   width="300">
  <defs
     id="defs4" />
  <metadata
     id="metadata7">
    <rdf:RDF>
      <cc:Work
         rdf:about="">
        <dc:format>image/svg+xml</dc:format>
        <dc:type
           rdf:resource="http://purl.org/dc/dcmitype/StillImage" />
        <dc:title></dc:title>
      </cc:Work>
    </rdf:RDF>
  </metadata>
  <g
     transform="translate(0,-752.36218)"
     id="layer1">
    <g
       transform="translate(396.6875,12.718765)"
       id="g7295">
      <path
         style="fill:#000000;fill-opacity:1;stroke:none"
         d="m -246.6875,759.64343 c -71.79702,0 -130,58.20298 -130,130 0,71.79701 58.20298,129.99997 130,129.99997 71.79702,0 130,-58.20296 130,-129.99997 0,-71.79702 -58.20298,-130 -130,-130 z m 0,26 c 57.43761,0 104,46.56239 104,104 0,57.43761 -46.56239,104 -104,104 -57.43761,0 -104,-46.56239 -104,-104 0,-57.43761 46.56239,-104 104,-104 z"
         id="path3092-3" />
      <g
         id="g7194">
        <path
           id="path3092"
           d="m -246.6875,784.64343 c -57.9899,0 -105,47.0101 -105,105 0,57.9899 47.0101,105 105,105 57.9899,0 105,-47.0101 105,-105 0,-57.9899 -47.0101,-105 -105,-105 z m 0,1 c 57.43761,0 104,46.56239 104,104 0,57.43761 -46.56239,104 -104,104 -57.43761,0 -104,-46.56239 -104,-104 0,-57.43761 46.56239,-104 104,-104 z"
           style="fill:#ffffff;fill-opacity:1;stroke:none" />
        <rect
           y="776.63428"
           x="-247.1869"
           height="8"
           width="1"
           id="rect5567"
           style="fill:#ffffff;fill-opacity:1;stroke:none" />
        <rect
           transform="matrix(0.98480775,-0.17364818,0.17364818,0.98480775,0,0)"
           y="720.28198"
           x="-397.92255"
           height="8"
           width="1"
           id="rect5567-2"
           style="fill:#ffffff;fill-opacity:1;stroke:none" />
        <rect
           transform="matrix(0.93969262,-0.34202014,0.34202014,0.93969262,0,0)"
           y="638.6109"
           x="-536.5827"
           height="8"
           width="1"
           id="rect5567-8"
           style="fill:#ffffff;fill-opacity:1;stroke:none" />
        <rect
           transform="matrix(0.90630779,-0.42261826,0.42261826,0.90630779,0,0)"
           y="594.02808"
           x="-600.04993"
           height="3"
           width="1"
           id="rect5567-7"
           style="fill:#ffffff;fill-opacity:1;stroke:none" />
        <rect
           transform="matrix(0.9961947,-0.08715574,0.08715574,0.9961947,0,0)"
           y="756.74878"
           x="-323.78491"
           height="3"
           width="1"
           id="rect5567-7-5"
           style="fill:#ffffff;fill-opacity:1;stroke:none" />
        <rect
           transform="matrix(0.96592583,-0.25881905,0.25881905,0.96592583,0,0)"
           y="687.47345"
           x="-469.03555"
           height="3"
           width="1"
           id="rect5567-7-2"
           style="fill:#ffffff;fill-opacity:1;stroke:none" />
        <rect
           transform="matrix(0.8660254,-0.5,0.5,0.8660254,0,0)"
           y="534.10242"
           x="-658.95428"
           height="8"
           width="1"
           id="rect5567-0"
           style="fill:#ffffff;fill-opacity:1;stroke:none" />
        <rect
           transform="matrix(0.76604444,-0.64278761,0.64278761,0.76604444,0,0)"
           y="409.9321"
           x="-761.31903"
           height="8"
           width="1"
           id="rect5567-2-3"
           style="fill:#ffffff;fill-opacity:1;stroke:none" />
        <rect
           transform="matrix(0.64278761,-0.76604444,0.76604444,0.64278761,0,0)"
           y="269.8728"
           x="-840.56665"
           height="8"
           width="1"
           id="rect5567-8-3"
           style="fill:#ffffff;fill-opacity:1;stroke:none" />
        <rect
           transform="matrix(0.57357644,-0.81915204,0.81915204,0.57357644,0,0)"
           y="200.19917"
           x="-870.7395"
           height="3"
           width="1"
           id="rect5567-7-1"
           style="fill:#ffffff;fill-opacity:1;stroke:none" />
        <rect
           transform="matrix(0.81915205,-0.57357643,0.57357643,0.81915205,0,0)"
           y="479.25195"
           x="-712.84735"
           height="3"
           width="1"
           id="rect5567-7-5-2"
           style="fill:#ffffff;fill-opacity:1;stroke:none" />
        <rect
           transform="matrix(0.70710678,-0.70710679,0.70710679,0.70710678,0,0)"
           y="346.63245"
           x="-804.00043"
           height="3"
           width="1"
           id="rect5567-7-2-1"
           style="fill:#ffffff;fill-opacity:1;stroke:none" />
        <rect
           transform="matrix(0.5,-0.8660254,0.8660254,0.5,0,0)"
           y="118.18002"
           x="-894.28931"
           height="8"
           width="1"
           id="rect5567-9"
           style="fill:#ffffff;fill-opacity:1;stroke:none" />
        <rect
           transform="matrix(0.34202014,-0.93969262,0.93969262,0.34202014,0,0)"
           y="-40.537033"
           x="-920.85461"
           height="8"
           width="1"
           id="rect5567-2-9"
           style="fill:#ffffff;fill-opacity:1;stroke:none" />
        <rect
           transform="matrix(0.17364818,-0.98480775,0.98480775,0.17364818,0,0)"
           y="-201.45576"
           x="-919.45544"
           height="8"
           width="1"
           id="rect5567-8-7"
           style="fill:#ffffff;fill-opacity:1;stroke:none" />
        <rect
           transform="matrix(0.08715575,-0.9961947,0.9961947,0.08715575,0,0)"
           y="-276.21143"
           x="-908.24908"
           height="3"
           width="1"
           id="rect5567-7-4"
           style="fill:#ffffff;fill-opacity:1;stroke:none" />
        <rect
           transform="matrix(0.42261827,-0.90630778,0.90630778,0.42261827,0,0)"
           y="44.401451"
           x="-911.03687"
           height="3"
           width="1"
           id="rect5567-7-5-0"
           style="fill:#ffffff;fill-opacity:1;stroke:none" />
        <rect
           transform="matrix(0.25881904,-0.96592583,0.96592583,0.25881904,0,0)"
           y="-116.02695"
           x="-923.66797"
           height="3"
           width="1"
           id="rect5567-7-2-0"
           style="fill:#ffffff;fill-opacity:1;stroke:none" />
        <rect
           transform="matrix(0,-1,1,0,0,0)"
           y="-359.68692"
           x="-890.13428"
           height="8"
           width="1"
           id="rect5567-3"
           style="fill:#ffffff;fill-opacity:1;stroke:none" />
        <rect
           transform="matrix(-0.17364818,-0.98480775,0.98480775,-0.17364818,0,0)"
           y="-510.42258"
           x="-833.78198"
           height="8"
           width="1"
           id="rect5567-2-90"
           style="fill:#ffffff;fill-opacity:1;stroke:none" />
        <rect
           transform="matrix(-0.34202014,-0.93969262,0.93969262,-0.34202014,0,0)"
           y="-649.0827"
           x="-752.11084"
           height="8"
           width="1"
           id="rect5567-8-6"
           style="fill:#ffffff;fill-opacity:1;stroke:none" />
        <rect
           transform="matrix(-0.42261826,-0.90630779,0.90630779,-0.42261826,0,0)"
           y="-707.54999"
           x="-702.52802"
           height="3"
           width="1"
           id="rect5567-7-6"
           style="fill:#ffffff;fill-opacity:1;stroke:none" />
        <rect
           transform="matrix(-0.08715574,-0.9961947,0.9961947,-0.08715574,0,0)"
           y="-431.28491"
           x="-865.24872"
           height="3"
           width="1"
           id="rect5567-7-5-5"
           style="fill:#ffffff;fill-opacity:1;stroke:none" />
        <rect
           transform="matrix(-0.25881905,-0.96592583,0.96592583,-0.25881905,0,0)"
           y="-576.53558"
           x="-795.97345"
           height="3"
           width="1"
           id="rect5567-7-2-15"
           style="fill:#ffffff;fill-opacity:1;stroke:none" />
        <rect
           transform="matrix(-0.5,-0.8660254,0.8660254,-0.5,0,0)"
           y="-771.45422"
           x="-647.60248"
           height="8"
           width="1"
           id="rect5567-21"
           style="fill:#ffffff;fill-opacity:1;stroke:none" />
        <rect
           transform="matrix(-0.64278761,-0.76604444,0.76604444,-0.64278761,0,0)"
           y="-873.81903"
           x="-523.43213"
           height="8"
           width="1"
           id="rect5567-2-8"
           style="fill:#ffffff;fill-opacity:1;stroke:none" />
        <rect
           transform="matrix(-0.76604444,-0.64278761,0.64278761,-0.76604444,0,0)"
           y="-953.06665"
           x="-383.3728"
           height="8"
           width="1"
           id="rect5567-8-2"
           style="fill:#ffffff;fill-opacity:1;stroke:none" />
        <rect
           transform="matrix(-0.81915204,-0.57357644,0.57357644,-0.81915204,0,0)"
           y="-978.2395"
           x="-308.69919"
           height="3"
           width="1"
           id="rect5567-7-13"
           style="fill:#ffffff;fill-opacity:1;stroke:none" />
        <rect
           transform="matrix(-0.57357643,-0.81915205,0.81915205,-0.57357643,0,0)"
           y="-820.34729"
           x="-587.75195"
           height="3"
           width="1"
           id="rect5567-7-5-6"
           style="fill:#ffffff;fill-opacity:1;stroke:none" />
        <rect
           transform="matrix(-0.70710679,-0.70710678,0.70710678,-0.70710679,0,0)"
           y="-911.50037"
           x="-455.13248"
           height="3"
           width="1"
           id="rect5567-7-2-14"
           style="fill:#ffffff;fill-opacity:1;stroke:none" />
        <rect
           transform="matrix(-0.8660254,-0.5,0.5,-0.8660254,0,0)"
           y="-1006.7893"
           x="-231.68002"
           height="8"
           width="1"
           id="rect5567-4"
           style="fill:#ffffff;fill-opacity:1;stroke:none" />
        <rect
           transform="matrix(-0.93969262,-0.34202014,0.34202014,-0.93969262,0,0)"
           y="-1033.3546"
           x="-72.96299"
           height="8"
           width="1"
           id="rect5567-2-5"
           style="fill:#ffffff;fill-opacity:1;stroke:none" />
        <rect
           transform="matrix(-0.98480775,-0.17364818,0.17364818,-0.98480775,0,0)"
           y="-1031.9554"
           x="87.955788"
           height="8"
           width="1"
           id="rect5567-8-4"
           style="fill:#ffffff;fill-opacity:1;stroke:none" />
        <rect
           transform="matrix(-0.9961947,-0.08715575,0.08715575,-0.9961947,0,0)"
           y="-1015.7491"
           x="167.71144"
           height="3"
           width="1"
           id="rect5567-7-7"
           style="fill:#ffffff;fill-opacity:1;stroke:none" />
        <rect
           transform="matrix(-0.90630778,-0.42261827,0.42261827,-0.90630778,0,0)"
           y="-1018.5369"
           x="-152.90144"
           height="3"
           width="1"
           id="rect5567-7-5-4"
           style="fill:#ffffff;fill-opacity:1;stroke:none" />
        <rect
           transform="matrix(-0.96592583,-0.25881904,0.25881904,-0.96592583,0,0)"
           y="-1031.168"
           x="7.5269442"
           height="3"
           width="1"
           id="rect5567-7-2-5"
           style="fill:#ffffff;fill-opacity:1;stroke:none" />
        <rect
           transform="scale(-1,-1)"
           y="-1002.6342"
           x="246.18689"
           height="8"
           width="1"
           id="rect5567-99"
           style="fill:#ffffff;fill-opacity:1;stroke:none" />
        <rect
           transform="matrix(-0.98480775,0.17364818,-0.17364818,-0.98480775,0,0)"
           y="-946.28198"
           x="396.92255"
           height="8"
           width="1"
           id="rect5567-2-33"
           style="fill:#ffffff;fill-opacity:1;stroke:none" />
        <rect
           transform="matrix(-0.93969262,0.34202014,-0.34202014,-0.93969262,0,0)"
           y="-864.61078"
           x="535.5827"
           height="8"
           width="1"
           id="rect5567-8-44"
           style="fill:#ffffff;fill-opacity:1;stroke:none" />
        <rect
           transform="matrix(-0.90630779,0.42261826,-0.42261826,-0.90630779,0,0)"
           y="-810.02802"
           x="599.04993"
           height="3"
           width="1"
           id="rect5567-7-60"
           style="fill:#ffffff;fill-opacity:1;stroke:none" />
        <rect
           transform="matrix(-0.9961947,0.08715574,-0.08715574,-0.9961947,0,0)"
           y="-972.74872"
           x="322.78491"
           height="3"
           width="1"
           id="rect5567-7-5-1"
           style="fill:#ffffff;fill-opacity:1;stroke:none" />
        <rect
           transform="matrix(-0.96592583,0.25881905,-0.25881905,-0.96592583,0,0)"
           y="-903.47339"
           x="468.03552"
           height="3"
           width="1"
           id="rect5567-7-2-12"
           style="fill:#ffffff;fill-opacity:1;stroke:none" />
        <rect
           transform="matrix(-0.8660254,0.5,-0.5,-0.8660254,0,0)"
           y="-760.10242"
           x="657.95428"
           height="8"
           width="1"
           id="rect5567-6"
           style="fill:#ffffff;fill-opacity:1;stroke:none" />
        <rect
           transform="matrix(-0.76604444,0.64278761,-0.64278761,-0.76604444,0,0)"
           y="-635.93213"
           x="760.31903"
           height="8"
           width="1"
           id="rect5567-2-6"
           style="fill:#ffffff;fill-opacity:1;stroke:none" />
        <rect
           transform="matrix(-0.64278761,0.76604444,-0.76604444,-0.64278761,0,0)"
           y="-495.87271"
           x="839.56665"
           height="8"
           width="1"
           id="rect5567-8-24"
           style="fill:#ffffff;fill-opacity:1;stroke:none" />
        <rect
           transform="matrix(-0.57357644,0.81915204,-0.81915204,-0.57357644,0,0)"
           y="-416.19919"
           x="869.73956"
           height="3"
           width="1"
           id="rect5567-7-9"
           style="fill:#ffffff;fill-opacity:1;stroke:none" />
        <rect
           transform="matrix(-0.81915205,0.57357643,-0.57357643,-0.81915205,0,0)"
           y="-695.25195"
           x="711.84735"
           height="3"
           width="1"
           id="rect5567-7-5-3"
           style="fill:#ffffff;fill-opacity:1;stroke:none" />
        <rect
           transform="matrix(-0.70710678,0.70710679,-0.70710679,-0.70710678,0,0)"
           y="-562.63245"
           x="803.00043"
           height="3"
           width="1"
           id="rect5567-7-2-05"
           style="fill:#ffffff;fill-opacity:1;stroke:none" />
        <rect
           transform="matrix(-0.5,0.8660254,-0.8660254,-0.5,0,0)"
           y="-344.17999"
           x="893.28931"
           height="8"
           width="1"
           id="rect5567-5"
           style="fill:#ffffff;fill-opacity:1;stroke:none" />
        <rect
           transform="matrix(-0.34202014,0.93969262,-0.93969262,-0.34202014,0,0)"
           y="-185.46297"
           x="919.85461"
           height="8"
           width="1"
           id="rect5567-2-0"
           style="fill:#ffffff;fill-opacity:1;stroke:none" />
        <rect
           transform="matrix(-0.17364818,0.98480775,-0.98480775,-0.17364818,0,0)"
           y="-24.544151"
           x="918.45544"
           height="8"
           width="1"
           id="rect5567-8-1"
           style="fill:#ffffff;fill-opacity:1;stroke:none" />
        <rect
           transform="matrix(-0.08715575,0.9961947,-0.9961947,-0.08715575,0,0)"
           y="60.211456"
           x="907.24908"
           height="3"
           width="1"
           id="rect5567-7-17"
           style="fill:#ffffff;fill-opacity:1;stroke:none" />
        <rect
           transform="matrix(-0.42261827,0.90630778,-0.90630778,-0.42261827,0,0)"
           y="-260.4014"
           x="910.0368"
           height="3"
           width="1"
           id="rect5567-7-5-8"
           style="fill:#ffffff;fill-opacity:1;stroke:none" />
        <rect
           transform="matrix(-0.25881904,0.96592583,-0.96592583,-0.25881904,0,0)"
           y="-99.973007"
           x="922.66797"
           height="3"
           width="1"
           id="rect5567-7-2-6"
           style="fill:#ffffff;fill-opacity:1;stroke:none" />
        <rect
           transform="matrix(0,1,-1,0,0,0)"
           y="133.68692"
           x="889.13428"
           height="8"
           width="1"
           id="rect5567-35"
           style="fill:#ffffff;fill-opacity:1;stroke:none" />
        <rect
           transform="matrix(0.17364818,0.98480775,-0.98480775,0.17364818,0,0)"
           y="284.42255"
           x="832.78204"
           height="8"
           width="1"
           id="rect5567-2-69"
           style="fill:#ffffff;fill-opacity:1;stroke:none" />
        <rect
           transform="matrix(0.34202014,0.93969262,-0.93969262,0.34202014,0,0)"
           y="423.08276"
           x="751.1109"
           height="8"
           width="1"
           id="rect5567-8-12"
           style="fill:#ffffff;fill-opacity:1;stroke:none" />
        <rect
           transform="matrix(0.42261826,0.90630779,-0.90630779,0.42261826,0,0)"
           y="491.54999"
           x="701.52814"
           height="3"
           width="1"
           id="rect5567-7-3"
           style="fill:#ffffff;fill-opacity:1;stroke:none" />
        <rect
           transform="matrix(0.08715574,0.9961947,-0.9961947,0.08715574,0,0)"
           y="215.28496"
           x="864.24878"
           height="3"
           width="1"
           id="rect5567-7-5-9"
           style="fill:#ffffff;fill-opacity:1;stroke:none" />
        <rect
           transform="matrix(0.25881905,0.96592583,-0.96592583,0.25881905,0,0)"
           y="360.53558"
           x="794.97345"
           height="3"
           width="1"
           id="rect5567-7-2-3"
           style="fill:#ffffff;fill-opacity:1;stroke:none" />
        <rect
           transform="matrix(0.5,0.8660254,-0.8660254,0.5,0,0)"
           y="545.45428"
           x="646.60242"
           height="8"
           width="1"
           id="rect5567-75"
           style="fill:#ffffff;fill-opacity:1;stroke:none" />
        <rect
           transform="matrix(0.64278761,0.76604444,-0.76604444,0.64278761,0,0)"
           y="647.81903"
           x="522.43207"
           height="8"
           width="1"
           id="rect5567-2-83"
           style="fill:#ffffff;fill-opacity:1;stroke:none" />
        <rect
           transform="matrix(0.76604444,0.64278761,-0.64278761,0.76604444,0,0)"
           y="727.06671"
           x="382.37274"
           height="8"
           width="1"
           id="rect5567-8-75"
           style="fill:#ffffff;fill-opacity:1;stroke:none" />
        <rect
           transform="matrix(0.81915204,0.57357644,-0.57357644,0.81915204,0,0)"
           y="762.2395"
           x="307.69919"
           height="3"
           width="1"
           id="rect5567-7-22"
           style="fill:#ffffff;fill-opacity:1;stroke:none" />
        <rect
           transform="matrix(0.57357643,0.81915205,-0.81915205,0.57357643,0,0)"
           y="604.34735"
           x="586.75195"
           height="3"
           width="1"
           id="rect5567-7-5-50"
           style="fill:#ffffff;fill-opacity:1;stroke:none" />
        <rect
           transform="matrix(0.70710679,0.70710678,-0.70710678,0.70710679,0,0)"
           y="695.50043"
           x="454.13242"
           height="3"
           width="1"
           id="rect5567-7-2-61"
           style="fill:#ffffff;fill-opacity:1;stroke:none" />
        <rect
           transform="matrix(0.8660254,0.5,-0.5,0.8660254,0,0)"
           y="780.78931"
           x="230.68001"
           height="8"
           width="1"
           id="rect5567-28"
           style="fill:#ffffff;fill-opacity:1;stroke:none" />
        <rect
           transform="matrix(0.93969262,0.34202014,-0.34202014,0.93969262,0,0)"
           y="807.35461"
           x="71.962967"
           height="8"
           width="1"
           id="rect5567-2-52"
           style="fill:#ffffff;fill-opacity:1;stroke:none" />
        <rect
           transform="matrix(0.98480775,0.17364818,-0.17364818,0.98480775,0,0)"
           y="805.95551"
           x="-88.955811"
           height="8"
           width="1"
           id="rect5567-8-42"
           style="fill:#ffffff;fill-opacity:1;stroke:none" />
        <rect
           transform="matrix(0.9961947,0.08715575,-0.08715575,0.9961947,0,0)"
           y="799.74915"
           x="-168.71143"
           height="3"
           width="1"
           id="rect5567-7-61"
           style="fill:#ffffff;fill-opacity:1;stroke:none" />
        <rect
           transform="matrix(0.90630778,0.42261827,-0.42261827,0.90630778,0,0)"
           y="802.53687"
           x="151.90143"
           height="3"
           width="1"
           id="rect5567-7-5-05"
           style="fill:#ffffff;fill-opacity:1;stroke:none" />
        <rect
           transform="matrix(0.96592583,0.25881904,-0.25881904,0.96592583,0,0)"
           y="815.16797"
           x="-8.5269775"
           height="3"
           width="1"
           id="rect5567-7-2-4"
           style="fill:#ffffff;fill-opacity:1;stroke:none" />
      </g>
      <g
         id="g7269">
        <g
           id="text5860"
           style="font-size:10px;font-style:normal;font-variant:normal;font-weight:normal;font-stretch:normal;line-height:125%;letter-spacing:0px;word-spacing:0px;fill:#ffffff;fill-opacity:1;stroke:none;font-family:DejaVu Sans;-inkscape-font-specification:DejaVu Sans">
          <path
             id="path7398"
             style="font-size:14px;font-stretch:condensed;text-align:center;text-anchor:middle;fill:#ffffff;font-family:Liberation Sans Narrow;-inkscape-font-specification:Liberation Sans Narrow Condensed"
             d="m -243.94568,769.59033 c 0,0.92514 -0.0729,1.70443 -0.21875,2.33789 -0.14128,0.62891 -0.33724,1.13933 -0.58789,1.53125 -0.2461,0.38737 -0.53776,0.66537 -0.875,0.83399 -0.33269,0.16862 -0.69043,0.25293 -1.07324,0.25293 -0.38282,0 -0.74056,-0.0843 -1.07324,-0.25293 -0.33269,-0.16862 -0.62208,-0.44662 -0.86817,-0.83399 -0.24609,-0.38737 -0.43978,-0.8955 -0.58105,-1.52441 -0.13672,-0.63346 -0.20508,-1.41504 -0.20508,-2.34473 0,-0.9707 0.0684,-1.77278 0.20508,-2.40625 0.14127,-0.63801 0.33496,-1.14615 0.58105,-1.52441 0.24609,-0.37825 0.53776,-0.64257 0.875,-0.79297 0.33724,-0.15494 0.7041,-0.23241 1.10059,-0.23242 0.37825,10e-6 0.73144,0.0775 1.05957,0.23242 0.33268,0.1504 0.62206,0.41472 0.86816,0.79297 0.24609,0.37826 0.43978,0.8864 0.58106,1.52441 0.14127,0.63347 0.21191,1.43555 0.21191,2.40625 m -1.02539,0 c 0,-0.76562 -0.0365,-1.40136 -0.10937,-1.90722 -0.0729,-0.51041 -0.1823,-0.91601 -0.32813,-1.2168 -0.14584,-0.30533 -0.32585,-0.51952 -0.54004,-0.64258 -0.20964,-0.12759 -0.4489,-0.1914 -0.71777,-0.19141 -0.28256,10e-6 -0.53321,0.0638 -0.75195,0.19141 -0.21876,0.12761 -0.40105,0.34408 -0.54688,0.64941 -0.14584,0.30079 -0.25749,0.70639 -0.33496,1.2168 -0.0729,0.50587 -0.10938,1.13933 -0.10938,1.90039 0,0.73829 0.0365,1.36036 0.10938,1.86621 0.0775,0.50586 0.18912,0.91374 0.33496,1.22364 0.15039,0.30534 0.33268,0.52636 0.54688,0.66308 0.21419,0.13216 0.458,0.19824 0.73144,0.19824 0.26432,0 0.5013,-0.0661 0.71094,-0.19824 0.21419,-0.13672 0.3942,-0.35774 0.54004,-0.66308 0.15038,-0.3099 0.26432,-0.71778 0.34179,-1.22364 0.082,-0.50585 0.12305,-1.12792 0.12305,-1.86621" />
        </g>
        <g
           id="text5860-8"
           style="font-size:10px;font-style:normal;font-variant:normal;font-weight:normal;font-stretch:normal;line-height:125%;letter-spacing:0px;word-spacing:0px;fill:#ffffff;fill-opacity:1;stroke:none;font-family:DejaVu Sans;-inkscape-font-specification:DejaVu Sans"
           transform="matrix(0.8660254,-0.5,0.5,0.8660254,0,0)">
          <path
             id="path7445"
             style="font-size:14px;font-stretch:condensed;text-align:center;text-anchor:middle;fill:#ffffff;font-family:Liberation Sans Narrow;-inkscape-font-specification:Liberation Sans Narrow Condensed"
             d="m -658.96692,529.21863 c 0,0.44206 -0.0593,0.83626 -0.17773,1.18262 -0.11394,0.34635 -0.28484,0.6403 -0.5127,0.88183 -0.22787,0.23698 -0.50814,0.41927 -0.84082,0.54688 -0.33269,0.12304 -0.7155,0.18457 -1.14844,0.18457 -0.48763,0 -0.90006,-0.0729 -1.2373,-0.21875 -0.33269,-0.15039 -0.6084,-0.34636 -0.82715,-0.58789 -0.21419,-0.2461 -0.37598,-0.52409 -0.48535,-0.83399 -0.10938,-0.31445 -0.18001,-0.63802 -0.21192,-0.9707 l 1.03907,-0.11621 c 0.0319,0.25521 0.0866,0.48763 0.16406,0.69726 0.082,0.20964 0.1914,0.38965 0.32812,0.54004 0.14128,0.15039 0.31218,0.2666 0.5127,0.34863 0.20508,0.082 0.44433,0.12305 0.71777,0.12305 0.51042,0 0.90918,-0.15267 1.19629,-0.45801 0.29166,-0.30533 0.4375,-0.75878 0.4375,-1.36035 0,-0.35546 -0.0661,-0.64029 -0.19824,-0.85449 -0.12761,-0.21875 -0.28711,-0.38737 -0.47852,-0.50586 -0.19141,-0.12304 -0.40104,-0.20507 -0.6289,-0.24609 -0.22331,-0.041 -0.43067,-0.0615 -0.62207,-0.0615 l -0.57422,0 0,-1.0664 0.54687,0 c 0.19141,0 0.38965,-0.0228 0.59473,-0.0684 0.20963,-0.0501 0.39876,-0.13672 0.56738,-0.25977 0.16862,-0.1276 0.30762,-0.29849 0.417,-0.51269 0.11392,-0.21419 0.17089,-0.48763 0.17089,-0.82032 0,-0.51496 -0.12533,-0.92056 -0.37597,-1.21679 -0.25066,-0.30078 -0.6198,-0.45117 -1.10742,-0.45117 -0.44662,0 -0.80665,0.139 -1.08008,0.41699 -0.27344,0.278 -0.43295,0.66993 -0.47852,1.17578 l -1.01172,-0.0957 c 0.041,-0.42382 0.13444,-0.79296 0.28028,-1.10743 0.15039,-0.31444 0.33951,-0.57421 0.56738,-0.77929 0.23242,-0.20963 0.49674,-0.36458 0.79297,-0.46485 0.29622,-0.1048 0.61067,-0.15721 0.94336,-0.15722 0.44205,1e-5 0.82031,0.0684 1.13476,0.20508 0.31901,0.13217 0.57877,0.31446 0.7793,0.54687 0.20052,0.22787 0.34863,0.49675 0.44434,0.80664 0.0957,0.3099 0.14355,0.64031 0.14355,0.99121 0,0.28256 -0.0319,0.54688 -0.0957,0.79297 -0.0638,0.2461 -0.16407,0.46713 -0.30078,0.66309 -0.13217,0.19597 -0.30307,0.36459 -0.5127,0.50586 -0.20508,0.14128 -0.45345,0.24837 -0.74512,0.32128 l 0,0.0273 c 0.31901,0.041 0.59473,0.12989 0.82715,0.2666 0.23698,0.13217 0.43294,0.29851 0.58789,0.49902 0.15495,0.20053 0.26888,0.42839 0.3418,0.6836 0.0775,0.25521 0.11621,0.52409 0.11621,0.80664" />
          <path
             id="path7447"
             style="font-size:14px;font-stretch:condensed;text-align:center;text-anchor:middle;fill:#ffffff;font-family:Liberation Sans Narrow;-inkscape-font-specification:Liberation Sans Narrow Condensed"
             d="m -652.56848,529.21863 c -10e-6,0.44206 -0.0593,0.83626 -0.17774,1.18262 -0.11393,0.34635 -0.28483,0.6403 -0.51269,0.88183 -0.22787,0.23698 -0.50814,0.41927 -0.84082,0.54688 -0.33269,0.12304 -0.7155,0.18457 -1.14844,0.18457 -0.48763,0 -0.90007,-0.0729 -1.2373,-0.21875 -0.33269,-0.15039 -0.6084,-0.34636 -0.82715,-0.58789 -0.2142,-0.2461 -0.37598,-0.52409 -0.48535,-0.83399 -0.10938,-0.31445 -0.18002,-0.63802 -0.21192,-0.9707 l 1.03906,-0.11621 c 0.0319,0.25521 0.0866,0.48763 0.16407,0.69726 0.082,0.20964 0.1914,0.38965 0.32812,0.54004 0.14128,0.15039 0.31217,0.2666 0.5127,0.34863 0.20507,0.082 0.44433,0.12305 0.71777,0.12305 0.51041,0 0.90918,-0.15267 1.19629,-0.45801 0.29166,-0.30533 0.4375,-0.75878 0.4375,-1.36035 0,-0.35546 -0.0661,-0.64029 -0.19824,-0.85449 -0.12761,-0.21875 -0.28712,-0.38737 -0.47852,-0.50586 -0.19141,-0.12304 -0.40104,-0.20507 -0.6289,-0.24609 -0.22331,-0.041 -0.43067,-0.0615 -0.62207,-0.0615 l -0.57422,0 0,-1.0664 0.54687,0 c 0.19141,0 0.38965,-0.0228 0.59473,-0.0684 0.20963,-0.0501 0.39876,-0.13672 0.56738,-0.25977 0.16862,-0.1276 0.30761,-0.29849 0.41699,-0.51269 0.11393,-0.21419 0.1709,-0.48763 0.1709,-0.82032 0,-0.51496 -0.12533,-0.92056 -0.37597,-1.21679 -0.25066,-0.30078 -0.6198,-0.45117 -1.10743,-0.45117 -0.44661,0 -0.80664,0.139 -1.08007,0.41699 -0.27344,0.278 -0.43295,0.66993 -0.47852,1.17578 l -1.01172,-0.0957 c 0.041,-0.42382 0.13444,-0.79296 0.28027,-1.10743 0.15039,-0.31444 0.33952,-0.57421 0.56739,-0.77929 0.23242,-0.20963 0.49674,-0.36458 0.79297,-0.46485 0.29622,-0.1048 0.61067,-0.15721 0.94336,-0.15722 0.44205,1e-5 0.8203,0.0684 1.13476,0.20508 0.31901,0.13217 0.57877,0.31446 0.7793,0.54687 0.20051,0.22787 0.34863,0.49675 0.44433,0.80664 0.0957,0.3099 0.14355,0.64031 0.14356,0.99121 -10e-6,0.28256 -0.0319,0.54688 -0.0957,0.79297 -0.0638,0.2461 -0.16407,0.46713 -0.30079,0.66309 -0.13216,0.19597 -0.30306,0.36459 -0.51269,0.50586 -0.20508,0.14128 -0.45346,0.24837 -0.74512,0.32128 l 0,0.0273 c 0.31901,0.041 0.59472,0.12989 0.82715,0.2666 0.23697,0.13217 0.43294,0.29851 0.58789,0.49902 0.15494,0.20053 0.26888,0.42839 0.3418,0.6836 0.0775,0.25521 0.1162,0.52409 0.11621,0.80664" />
        </g>
        <g
           id="text5860-3"
           style="font-size:10px;font-style:normal;font-variant:normal;font-weight:normal;font-stretch:normal;line-height:125%;letter-spacing:0px;word-spacing:0px;fill:#ffffff;fill-opacity:1;stroke:none;font-family:DejaVu Sans;-inkscape-font-specification:DejaVu Sans"
           transform="matrix(0.5,-0.8660254,0.8660254,0.5,0,0)">
          <path
             id="path7440"
             style="font-size:14px;font-stretch:condensed;text-align:center;text-anchor:middle;fill:#ffffff;font-family:Liberation Sans Narrow;-inkscape-font-specification:Liberation Sans Narrow Condensed"
             d="m -894.302,113.29625 c -10e-6,0.44206 -0.0593,0.83626 -0.17774,1.18262 -0.11393,0.34635 -0.28483,0.6403 -0.51269,0.88183 -0.22787,0.23698 -0.50814,0.41927 -0.84082,0.54688 -0.33269,0.12304 -0.7155,0.18457 -1.14844,0.18457 -0.48763,0 -0.90007,-0.0729 -1.2373,-0.21875 -0.33269,-0.15039 -0.6084,-0.34636 -0.82715,-0.58789 -0.2142,-0.2461 -0.37598,-0.52409 -0.48535,-0.83399 -0.10938,-0.31445 -0.18002,-0.63802 -0.21192,-0.9707 l 1.03906,-0.11621 c 0.0319,0.25521 0.0866,0.48763 0.16407,0.69726 0.082,0.20964 0.1914,0.38965 0.32812,0.54004 0.14128,0.1504 0.31217,0.26661 0.5127,0.34864 0.20507,0.082 0.44433,0.12304 0.71777,0.12304 0.51041,0 0.90918,-0.15267 1.19629,-0.458 0.29166,-0.30534 0.43749,-0.75879 0.4375,-1.36036 -10e-6,-0.35546 -0.0661,-0.64029 -0.19824,-0.85449 -0.12761,-0.21874 -0.28712,-0.38736 -0.47852,-0.50586 -0.19141,-0.12304 -0.40104,-0.20507 -0.6289,-0.24609 -0.22332,-0.041 -0.43067,-0.0615 -0.62207,-0.0615 l -0.57422,0 0,-1.06641 0.54687,0 c 0.1914,0 0.38965,-0.0228 0.59473,-0.0684 0.20963,-0.0501 0.39876,-0.13671 0.56738,-0.25977 0.16862,-0.12759 0.30761,-0.29849 0.41699,-0.51269 0.11393,-0.21419 0.1709,-0.48762 0.1709,-0.82031 0,-0.51497 -0.12533,-0.92057 -0.37598,-1.2168 -0.25065,-0.30077 -0.61979,-0.45116 -1.10742,-0.45117 -0.44661,1e-5 -0.80664,0.139 -1.08008,0.41699 -0.27343,0.278 -0.43294,0.66993 -0.47851,1.17578 l -1.01172,-0.0957 c 0.041,-0.42382 0.13444,-0.79296 0.28027,-1.10742 0.15039,-0.31445 0.33952,-0.57421 0.56739,-0.7793 0.23242,-0.20963 0.49674,-0.36458 0.79297,-0.46484 0.29622,-0.10481 0.61067,-0.15722 0.94335,-0.15723 0.44206,1e-5 0.82031,0.0684 1.13477,0.20508 0.31901,0.13217 0.57877,0.31446 0.7793,0.54687 0.20051,0.22787 0.34862,0.49675 0.44433,0.80664 0.0957,0.30991 0.14355,0.64031 0.14356,0.99121 -10e-6,0.28256 -0.0319,0.54688 -0.0957,0.79297 -0.0638,0.2461 -0.16406,0.46713 -0.30078,0.66309 -0.13216,0.19597 -0.30306,0.36459 -0.51269,0.50586 -0.20508,0.14128 -0.45346,0.24837 -0.74512,0.32129 l 0,0.0273 c 0.31901,0.041 0.59472,0.12989 0.82715,0.2666 0.23697,0.13217 0.43294,0.29851 0.58789,0.49903 0.15494,0.20052 0.26887,0.42838 0.3418,0.68359 0.0775,0.25521 0.1162,0.52409 0.11621,0.80664" />
          <path
             id="path7442"
             style="font-size:14px;font-stretch:condensed;text-align:center;text-anchor:middle;fill:#ffffff;font-family:Liberation Sans Narrow;-inkscape-font-specification:Liberation Sans Narrow Condensed"
             d="m -887.84888,111.13609 c 0,0.92514 -0.0729,1.70443 -0.21875,2.33789 -0.14128,0.62891 -0.33724,1.13933 -0.58789,1.53125 -0.2461,0.38737 -0.53776,0.66537 -0.875,0.83399 -0.33268,0.16862 -0.69043,0.25293 -1.07324,0.25293 -0.38282,0 -0.74056,-0.0843 -1.07324,-0.25293 -0.33269,-0.16862 -0.62207,-0.44662 -0.86817,-0.83399 -0.24609,-0.38736 -0.43978,-0.8955 -0.58105,-1.52441 -0.13672,-0.63346 -0.20508,-1.41504 -0.20508,-2.34473 0,-0.97069 0.0684,-1.77278 0.20508,-2.40625 0.14127,-0.63801 0.33496,-1.14615 0.58105,-1.52441 0.2461,-0.37825 0.53776,-0.64257 0.875,-0.79297 0.33724,-0.15494 0.7041,-0.23241 1.10059,-0.23242 0.37825,10e-6 0.73144,0.0775 1.05957,0.23242 0.33268,0.1504 0.62207,0.41472 0.86816,0.79297 0.24609,0.37826 0.43978,0.8864 0.58106,1.52441 0.14127,0.63347 0.21191,1.43556 0.21191,2.40625 m -1.02539,0 c 0,-0.76562 -0.0365,-1.40136 -0.10937,-1.90722 -0.0729,-0.51041 -0.1823,-0.91601 -0.32813,-1.2168 -0.14584,-0.30533 -0.32585,-0.51952 -0.54004,-0.64258 -0.20964,-0.12759 -0.44889,-0.1914 -0.71777,-0.1914 -0.28256,0 -0.53321,0.0638 -0.75195,0.1914 -0.21876,0.12761 -0.40105,0.34409 -0.54688,0.64942 -0.14583,0.30078 -0.25749,0.70638 -0.33496,1.21679 -0.0729,0.50587 -0.10938,1.13933 -0.10937,1.90039 -1e-5,0.73829 0.0364,1.36036 0.10937,1.86621 0.0775,0.50587 0.18913,0.91374 0.33496,1.22364 0.15039,0.30534 0.33268,0.52637 0.54688,0.66308 0.21419,0.13217 0.458,0.19825 0.73144,0.19825 0.26432,0 0.5013,-0.0661 0.71094,-0.19825 0.21419,-0.13671 0.3942,-0.35774 0.54004,-0.66308 0.15038,-0.3099 0.26432,-0.71777 0.3418,-1.22364 0.082,-0.50585 0.12304,-1.12792 0.12304,-1.86621" />
        </g>
        <g
           id="text5860-81"
           style="font-size:10px;font-style:normal;font-variant:normal;font-weight:normal;font-stretch:normal;line-height:125%;letter-spacing:0px;word-spacing:0px;fill:#ffffff;fill-opacity:1;stroke:none;font-family:DejaVu Sans;-inkscape-font-specification:DejaVu Sans"
           transform="matrix(0,-1,1,0,0,0)">
          <path
             id="path7435"
             style="font-size:14px;font-stretch:condensed;text-align:center;text-anchor:middle;fill:#ffffff;font-family:Liberation Sans Narrow;-inkscape-font-specification:Liberation Sans Narrow Condensed"
             d="m -895.45166,-361.91144 0,-0.86816 c 0.19141,-0.5332 0.42383,-1.0026 0.69727,-1.40821 0.27799,-0.41015 0.56738,-0.77929 0.86816,-1.10742 0.30534,-0.33268 0.60612,-0.64029 0.90234,-0.92285 0.29622,-0.28255 0.56283,-0.5651 0.79981,-0.84765 0.24153,-0.28255 0.43522,-0.57878 0.58105,-0.88868 0.15039,-0.30989 0.22558,-0.6608 0.22559,-1.05273 -10e-6,-0.27343 -0.0342,-0.51269 -0.10254,-0.71777 -0.0684,-0.20963 -0.16635,-0.38509 -0.29395,-0.52637 -0.12305,-0.14127 -0.27344,-0.24609 -0.45117,-0.31445 -0.17774,-0.0729 -0.37598,-0.10937 -0.59472,-0.10938 -0.20053,1e-5 -0.38966,0.0342 -0.56739,0.10254 -0.17773,0.0684 -0.33724,0.17091 -0.47851,0.30762 -0.13672,0.13672 -0.24838,0.30762 -0.33496,0.51269 -0.0866,0.20053 -0.14356,0.43523 -0.1709,0.7041 l -1.03223,-0.11621 c 0.0319,-0.34634 0.10938,-0.67219 0.23242,-0.97754 0.12761,-0.30533 0.2985,-0.57193 0.5127,-0.7998 0.21875,-0.23241 0.47851,-0.41471 0.7793,-0.54688 0.30533,-0.13215 0.65852,-0.19823 1.05957,-0.19824 0.39192,10e-6 0.74055,0.057 1.04589,0.1709 0.3099,0.11394 0.56966,0.28256 0.7793,0.50586 0.20963,0.22332 0.37141,0.49903 0.48535,0.82715 0.11393,0.32813 0.1709,0.70639 0.1709,1.13476 0,0.32358 -0.0479,0.63119 -0.14355,0.92285 -0.0957,0.29168 -0.22332,0.56967 -0.38282,0.83399 -0.15951,0.26433 -0.34408,0.51954 -0.55371,0.76562 -0.20964,0.2461 -0.42839,0.48536 -0.65625,0.71778 l -0.69043,0.69726 c -0.23242,0.23243 -0.45117,0.46485 -0.65625,0.69727 -0.20052,0.23242 -0.38053,0.4694 -0.54004,0.71094 -0.1595,0.23698 -0.28483,0.48535 -0.37597,0.74511 l 4.12207,0 0,1.0459 -5.23633,0" />
          <path
             id="path7437"
             style="font-size:14px;font-stretch:condensed;text-align:center;text-anchor:middle;fill:#ffffff;font-family:Liberation Sans Narrow;-inkscape-font-specification:Liberation Sans Narrow Condensed"
             d="m -883.81689,-370.54523 c -0.39649,0.73829 -0.76108,1.44923 -1.09375,2.13282 -0.33269,0.67904 -0.6198,1.36491 -0.86133,2.05761 -0.23699,0.68816 -0.42383,1.39682 -0.56055,2.12598 -0.13216,0.72461 -0.19824,1.49707 -0.19824,2.31738 l -1.05274,0 c 0,-0.77018 0.0752,-1.52441 0.22559,-2.26269 0.15039,-0.74284 0.35091,-1.46973 0.60156,-2.18067 0.25521,-0.71549 0.55143,-1.41731 0.88867,-2.10547 0.33724,-0.68814 0.69499,-1.36718 1.07325,-2.03711 l -4.24512,0 0,-1.04589 5.22266,0 0,0.99804" />
        </g>
        <g
           id="text5860-1"
           style="font-size:10px;font-style:normal;font-variant:normal;font-weight:normal;font-stretch:normal;line-height:125%;letter-spacing:0px;word-spacing:0px;fill:#ffffff;fill-opacity:1;stroke:none;font-family:DejaVu Sans;-inkscape-font-specification:DejaVu Sans"
           transform="matrix(-0.5,-0.8660254,0.8660254,-0.5,0,0)">
          <path
             id="path7430"
             style="font-size:14px;font-stretch:condensed;text-align:center;text-anchor:middle;fill:#ffffff;font-family:Liberation Sans Narrow;-inkscape-font-specification:Liberation Sans Narrow Condensed"
             d="m -652.9198,-773.67883 0,-0.86817 c 0.19141,-0.5332 0.42383,-1.0026 0.69727,-1.4082 0.27799,-0.41015 0.56738,-0.77929 0.86816,-1.10742 0.30534,-0.33268 0.60612,-0.6403 0.90234,-0.92285 0.29622,-0.28255 0.56283,-0.5651 0.79981,-0.84766 0.24153,-0.28255 0.43522,-0.57877 0.58105,-0.88867 0.15039,-0.30989 0.22558,-0.6608 0.22559,-1.05274 -10e-6,-0.27343 -0.0342,-0.51268 -0.10254,-0.71777 -0.0684,-0.20963 -0.16635,-0.38508 -0.29395,-0.52637 -0.12305,-0.14126 -0.27344,-0.24608 -0.45117,-0.31445 -0.17774,-0.0729 -0.37598,-0.10937 -0.59472,-0.10937 -0.20053,0 -0.38966,0.0342 -0.56739,0.10253 -0.17773,0.0684 -0.33724,0.17091 -0.47851,0.30762 -0.13672,0.13673 -0.24838,0.30763 -0.33496,0.5127 -0.0866,0.20053 -0.14356,0.43523 -0.1709,0.7041 l -1.03223,-0.11621 c 0.0319,-0.34635 0.10938,-0.6722 0.23242,-0.97754 0.12761,-0.30533 0.29851,-0.57193 0.5127,-0.79981 0.21875,-0.23241 0.47851,-0.4147 0.7793,-0.54687 0.30533,-0.13215 0.65852,-0.19823 1.05957,-0.19824 0.39192,10e-6 0.74055,0.057 1.04589,0.17089 0.3099,0.11395 0.56966,0.28257 0.7793,0.50586 0.20963,0.22332 0.37142,0.49904 0.48535,0.82715 0.11393,0.32814 0.1709,0.70639 0.1709,1.13477 0,0.32357 -0.0479,0.63119 -0.14355,0.92285 -0.0957,0.29167 -0.22332,0.56967 -0.38282,0.83398 -0.15951,0.26433 -0.34408,0.51954 -0.55371,0.76563 -0.20964,0.2461 -0.42839,0.48535 -0.65625,0.71777 l -0.69043,0.69727 c -0.23242,0.23242 -0.45117,0.46484 -0.65625,0.69726 -0.20052,0.23243 -0.38053,0.46941 -0.54004,0.71094 -0.1595,0.23698 -0.28483,0.48535 -0.37597,0.74512 l 4.12207,0 0,1.0459 -5.23633,0" />
          <path
             id="path7432"
             style="font-size:14px;font-stretch:condensed;text-align:center;text-anchor:middle;fill:#ffffff;font-family:Liberation Sans Narrow;-inkscape-font-specification:Liberation Sans Narrow Condensed"
             d="m -642.16003,-775.8595 0,2.18067 -0.9502,0 0,-2.18067 -3.71875,0 0,-0.95703 3.60938,-6.49414 1.05957,0 0,6.48047 1.11425,0 0,0.9707 -1.11425,0 m -0.9502,-6.06347 c -0.009,0.0228 -0.0296,0.0684 -0.0615,0.13672 l -0.0957,0.21875 -0.10937,0.24609 c -0.041,0.0866 -0.0775,0.15723 -0.10938,0.21191 l -2.02343,3.63672 c -0.0182,0.0365 -0.0456,0.0843 -0.082,0.14356 l -0.10938,0.17773 -0.10937,0.18457 c -0.0365,0.0592 -0.0661,0.10482 -0.0889,0.13672 l 2.78906,0 0,-5.09277" />
        </g>
        <g
           id="text5860-37"
           style="font-size:10px;font-style:normal;font-variant:normal;font-weight:normal;font-stretch:normal;line-height:125%;letter-spacing:0px;word-spacing:0px;fill:#ffffff;fill-opacity:1;stroke:none;font-family:DejaVu Sans;-inkscape-font-specification:DejaVu Sans"
           transform="matrix(-0.8660254,-0.5,0.5,-0.8660254,0,0)">
          <path
             id="path7425"
             style="font-size:14px;font-stretch:condensed;text-align:center;text-anchor:middle;fill:#ffffff;font-family:Liberation Sans Narrow;-inkscape-font-specification:Liberation Sans Narrow Condensed"
             d="m -236.99741,-1009.0139 0,-0.8682 c 0.19141,-0.5332 0.42383,-1.0026 0.69727,-1.4082 0.27799,-0.4101 0.56738,-0.7793 0.86816,-1.1074 0.30534,-0.3327 0.60612,-0.6403 0.90235,-0.9229 0.29622,-0.2825 0.56282,-0.5651 0.7998,-0.8476 0.24153,-0.2826 0.43522,-0.5788 0.58106,-0.8887 0.15038,-0.3099 0.22558,-0.6608 0.22558,-1.0527 0,-0.2734 -0.0342,-0.5127 -0.10254,-0.7178 -0.0684,-0.2096 -0.16634,-0.3851 -0.29394,-0.5264 -0.12305,-0.1412 -0.27344,-0.246 -0.45117,-0.3144 -0.17774,-0.073 -0.37598,-0.1094 -0.59473,-0.1094 -0.20052,0 -0.38965,0.034 -0.56738,0.1026 -0.17774,0.068 -0.33724,0.1709 -0.47852,0.3076 -0.13672,0.1367 -0.24837,0.3076 -0.33496,0.5127 -0.0866,0.2005 -0.14356,0.4352 -0.1709,0.7041 l -1.03222,-0.1162 c 0.0319,-0.3464 0.10937,-0.6722 0.23242,-0.9776 0.1276,-0.3053 0.2985,-0.5719 0.51269,-0.7998 0.21875,-0.2324 0.47852,-0.4147 0.7793,-0.5469 0.30534,-0.1321 0.65853,-0.1982 1.05957,-0.1982 0.39192,0 0.74056,0.057 1.0459,0.1709 0.30989,0.1139 0.56966,0.2826 0.7793,0.5059 0.20963,0.2233 0.37141,0.499 0.48535,0.8271 0.11392,0.3281 0.17089,0.7064 0.1709,1.1348 -1e-5,0.3235 -0.0479,0.6312 -0.14356,0.9228 -0.0957,0.2917 -0.22331,0.5697 -0.38281,0.834 -0.15951,0.2643 -0.34408,0.5195 -0.55371,0.7656 -0.20964,0.2461 -0.42839,0.4854 -0.65625,0.7178 l -0.69043,0.6973 c -0.23243,0.2324 -0.45118,0.4648 -0.65625,0.6972 -0.20053,0.2325 -0.38054,0.4694 -0.54004,0.711 -0.15951,0.2369 -0.28483,0.4853 -0.37598,0.7451 l 4.12207,0 0,1.0459 -5.23633,0" />
          <path
             id="path7427"
             style="font-size:14px;font-stretch:condensed;text-align:center;text-anchor:middle;fill:#ffffff;font-family:Liberation Sans Narrow;-inkscape-font-specification:Liberation Sans Narrow Condensed"
             d="m -230.29819,-1009.0139 0,-1.0459 2.00977,0 0,-7.4102 -1.77735,1.5518 0,-1.1621 1.86622,-1.5655 0.92968,0 0,8.586 1.9209,0 0,1.0459 -4.94922,0" />
        </g>
        <g
           id="text5860-4"
           style="font-size:10px;font-style:normal;font-variant:normal;font-weight:normal;font-stretch:normal;line-height:125%;letter-spacing:0px;word-spacing:0px;fill:#ffffff;fill-opacity:1;stroke:none;font-family:DejaVu Sans;-inkscape-font-specification:DejaVu Sans"
           transform="scale(-1,-1)">
          <path
             id="path7420"
             style="font-size:14px;font-stretch:condensed;text-align:center;text-anchor:middle;fill:#ffffff;font-family:Liberation Sans Narrow;-inkscape-font-specification:Liberation Sans Narrow Condensed"
             d="m 241.17029,-1004.8588 0,-1.0459 2.00976,0 0,-7.4102 -1.77734,1.5518 0,-1.1621 1.86621,-1.5655 0.92969,0 0,8.586 1.9209,0 0,1.0459 -4.94922,0" />
          <path
             id="path7422"
             style="font-size:14px;font-stretch:condensed;text-align:center;text-anchor:middle;fill:#ffffff;font-family:Liberation Sans Narrow;-inkscape-font-specification:Liberation Sans Narrow Condensed"
             d="m 252.57947,-1007.5453 c -10e-6,0.4101 -0.0547,0.7884 -0.16406,1.1347 -0.10483,0.3418 -0.26661,0.638 -0.48536,0.8887 -0.21875,0.2506 -0.49902,0.4466 -0.84082,0.5879 -0.33724,0.1413 -0.73828,0.2119 -1.20312,0.2119 -0.46485,0 -0.86589,-0.071 -1.20313,-0.2119 -0.33724,-0.1413 -0.61751,-0.335 -0.84082,-0.5811 -0.21875,-0.2506 -0.38281,-0.5468 -0.49218,-0.8886 -0.10482,-0.3464 -0.15723,-0.7224 -0.15723,-1.128 0,-0.3509 0.0433,-0.6631 0.12988,-0.9365 0.0911,-0.2734 0.20964,-0.5081 0.35547,-0.7041 0.14583,-0.2005 0.31217,-0.36 0.49902,-0.4785 0.19141,-0.1231 0.38737,-0.2051 0.58789,-0.2461 l 0,-0.027 c -0.21875,-0.064 -0.41471,-0.1663 -0.58789,-0.3076 -0.17317,-0.1412 -0.31901,-0.3099 -0.4375,-0.5058 -0.11849,-0.2005 -0.20963,-0.4216 -0.27343,-0.6631 -0.0593,-0.2415 -0.0889,-0.4968 -0.0889,-0.7656 0,-0.3373 0.0524,-0.654 0.15723,-0.9502 0.10937,-0.3008 0.26887,-0.5629 0.47851,-0.7862 0.20964,-0.2278 0.4694,-0.4056 0.7793,-0.5332 0.30989,-0.1321 0.66764,-0.1982 1.07324,-0.1982 0.42838,0 0.7998,0.066 1.11426,0.1982 0.319,0.1322 0.58105,0.3122 0.78613,0.5401 0.20963,0.2233 0.36458,0.4853 0.46484,0.7861 0.10026,0.3008 0.15039,0.6198 0.1504,0.957 -1e-5,0.2644 -0.0319,0.5173 -0.0957,0.7588 -0.0592,0.2416 -0.14811,0.4626 -0.2666,0.6631 -0.11394,0.196 -0.25977,0.3646 -0.4375,0.5059 -0.17318,0.1367 -0.3737,0.2324 -0.60156,0.2871 l 0,0.027 c 0.22786,0.046 0.43977,0.1299 0.63574,0.2529 0.19596,0.1185 0.36458,0.278 0.50586,0.4786 0.14127,0.1959 0.25292,0.4306 0.33496,0.7041 0.082,0.2734 0.12304,0.5833 0.12305,0.9297 m -1.24414,-4.5391 c -1e-5,-0.2415 -0.0251,-0.4626 -0.0752,-0.6631 -0.0501,-0.2005 -0.13444,-0.3714 -0.25293,-0.5127 -0.11393,-0.1458 -0.26432,-0.2575 -0.45117,-0.335 -0.18685,-0.082 -0.417,-0.123 -0.69043,-0.123 -0.26433,0 -0.48763,0.041 -0.66992,0.123 -0.1823,0.077 -0.33269,0.1892 -0.45117,0.335 -0.11849,0.1413 -0.20508,0.3122 -0.25977,0.5127 -0.0501,0.2005 -0.0752,0.4216 -0.0752,0.6631 -10e-6,0.1914 0.0205,0.3874 0.0615,0.5879 0.041,0.2005 0.11621,0.3828 0.22559,0.5469 0.10937,0.164 0.25748,0.2985 0.44433,0.4033 0.1914,0.1048 0.4375,0.1572 0.73828,0.1572 0.31901,0 0.57422,-0.052 0.76563,-0.1572 0.1914,-0.1048 0.33723,-0.2393 0.4375,-0.4033 0.10481,-0.1641 0.17317,-0.3464 0.20508,-0.5469 0.0319,-0.2005 0.0478,-0.3965 0.0479,-0.5879 m 0.19824,4.4228 c -1e-5,-0.2324 -0.0273,-0.4557 -0.082,-0.6699 -0.0501,-0.2187 -0.139,-0.4101 -0.2666,-0.5742 -0.12761,-0.1686 -0.29851,-0.3031 -0.5127,-0.4033 -0.2142,-0.1048 -0.48308,-0.1572 -0.80664,-0.1572 -0.29623,0 -0.54916,0.052 -0.75879,0.1572 -0.20508,0.1002 -0.37142,0.2347 -0.49902,0.4033 -0.12761,0.1686 -0.22103,0.3646 -0.28028,0.5879 -0.0592,0.2187 -0.0889,0.4466 -0.0889,0.6836 0,0.2962 0.0296,0.5674 0.0889,0.8135 0.0593,0.2415 0.15267,0.4511 0.28028,0.6289 0.13216,0.1731 0.30533,0.3076 0.51953,0.4033 0.21419,0.096 0.47168,0.1435 0.77246,0.1435 0.30534,0 0.56282,-0.048 0.77246,-0.1435 0.20963,-0.096 0.37825,-0.2302 0.50586,-0.4033 0.1276,-0.1778 0.21875,-0.3897 0.27344,-0.6358 0.0547,-0.2506 0.082,-0.5286 0.082,-0.834" />
        </g>
        <g
           id="text5860-39"
           style="font-size:10px;font-style:normal;font-variant:normal;font-weight:normal;font-stretch:normal;line-height:125%;letter-spacing:0px;word-spacing:0px;fill:#ffffff;fill-opacity:1;stroke:none;font-family:DejaVu Sans;-inkscape-font-specification:DejaVu Sans"
           transform="matrix(-0.8660254,0.5,-0.5,-0.8660254,0,0)">
          <path
             id="path7415"
             style="font-size:14px;font-stretch:condensed;text-align:center;text-anchor:middle;fill:#ffffff;font-family:Liberation Sans Narrow;-inkscape-font-specification:Liberation Sans Narrow Condensed"
             d="m 652.93768,-762.32703 0,-1.04589 2.00977,0 0,-7.41016 -1.77735,1.55176 0,-1.16211 1.86622,-1.56543 0.92968,0 0,8.58594 1.9209,0 0,1.04589 -4.94922,0" />
          <path
             id="path7417"
             style="font-size:14px;font-stretch:condensed;text-align:center;text-anchor:middle;fill:#ffffff;font-family:Liberation Sans Narrow;-inkscape-font-specification:Liberation Sans Narrow Condensed"
             d="m 664.36053,-765.46472 c 0,0.48307 -0.0593,0.92513 -0.17773,1.32617 -0.11849,0.40104 -0.29623,0.7474 -0.5332,1.03906 -0.23243,0.28711 -0.5241,0.51042 -0.875,0.66992 -0.35092,0.15951 -0.75652,0.23926 -1.2168,0.23926 -0.41472,0 -0.77702,-0.0592 -1.08691,-0.17773 -0.30534,-0.11849 -0.56511,-0.28028 -0.7793,-0.48535 -0.20964,-0.20964 -0.37826,-0.45345 -0.50586,-0.73145 -0.12305,-0.27799 -0.21191,-0.57649 -0.2666,-0.89551 l 1.01855,-0.14355 c 0.041,0.18229 0.098,0.36003 0.1709,0.5332 0.0775,0.16862 0.18001,0.32129 0.30762,0.45801 0.13216,0.13216 0.29166,0.23926 0.47851,0.32129 0.19141,0.0775 0.42155,0.11621 0.69043,0.11621 0.25977,0 0.49675,-0.0478 0.71094,-0.14356 0.21419,-0.10025 0.39648,-0.24609 0.54688,-0.4375 0.15038,-0.1914 0.26659,-0.4261 0.34863,-0.7041 0.082,-0.27799 0.12304,-0.597 0.12305,-0.95703 -1e-5,-0.29622 -0.0388,-0.56738 -0.11621,-0.81347 -0.0775,-0.25065 -0.18914,-0.46484 -0.33497,-0.64258 -0.14583,-0.18229 -0.32585,-0.32357 -0.54003,-0.42383 -0.20964,-0.10026 -0.4489,-0.15039 -0.71778,-0.15039 -0.16862,0 -0.32357,0.0182 -0.46484,0.0547 -0.14128,0.0365 -0.27344,0.0866 -0.39649,0.15039 -0.11849,0.0638 -0.22786,0.139 -0.32812,0.22558 -0.10026,0.082 -0.19369,0.16863 -0.28027,0.25977 l -0.98438,0 0.25977,-5.18164 4.49121,0 0,1.0459 -3.56836,0 -0.15039,3.05566 c 0.17773,-0.16861 0.40104,-0.31217 0.66992,-0.43066 0.26888,-0.12304 0.58789,-0.18457 0.95703,-0.18457 0.39192,0 0.74511,0.0729 1.05957,0.21875 0.31445,0.14583 0.58105,0.35319 0.7998,0.62207 0.22331,0.26432 0.39421,0.58106 0.5127,0.95019 0.11848,0.36915 0.17773,0.77474 0.17773,1.2168" />
        </g>
        <g
           id="text5860-17"
           style="font-size:10px;font-style:normal;font-variant:normal;font-weight:normal;font-stretch:normal;line-height:125%;letter-spacing:0px;word-spacing:0px;fill:#ffffff;fill-opacity:1;stroke:none;font-family:DejaVu Sans;-inkscape-font-specification:DejaVu Sans"
           transform="matrix(-0.5,0.8660254,-0.8660254,-0.5,0,0)">
          <path
             id="path7410"
             style="font-size:14px;font-stretch:condensed;text-align:center;text-anchor:middle;fill:#ffffff;font-family:Liberation Sans Narrow;-inkscape-font-specification:Liberation Sans Narrow Condensed"
             d="m 888.27271,-346.4046 0,-1.0459 2.00976,0 0,-7.41016 -1.77734,1.55176 0,-1.16211 1.86621,-1.56543 0.92969,0 0,8.58594 1.92089,0 0,1.0459 -4.94921,0" />
          <path
             id="path7412"
             style="font-size:14px;font-stretch:condensed;text-align:center;text-anchor:middle;fill:#ffffff;font-family:Liberation Sans Narrow;-inkscape-font-specification:Liberation Sans Narrow Condensed"
             d="m 894.37036,-346.4046 0,-0.86817 c 0.19141,-0.5332 0.42383,-1.0026 0.69727,-1.4082 0.27799,-0.41015 0.56738,-0.77929 0.86816,-1.10742 0.30534,-0.33268 0.60612,-0.6403 0.90234,-0.92285 0.29623,-0.28255 0.56283,-0.5651 0.79981,-0.84766 0.24153,-0.28255 0.43522,-0.57877 0.58105,-0.88867 0.15039,-0.30989 0.22559,-0.6608 0.22559,-1.05274 0,-0.27343 -0.0342,-0.51268 -0.10254,-0.71777 -0.0684,-0.20963 -0.16634,-0.38508 -0.29394,-0.52637 -0.12306,-0.14126 -0.27345,-0.24608 -0.45118,-0.31445 -0.17773,-0.0729 -0.37598,-0.10937 -0.59472,-0.10937 -0.20053,0 -0.38965,0.0342 -0.56739,0.10254 -0.17773,0.0684 -0.33724,0.1709 -0.47851,0.30761 -0.13672,0.13673 -0.24838,0.30763 -0.33496,0.5127 -0.0866,0.20053 -0.14356,0.43523 -0.1709,0.7041 l -1.03223,-0.11621 c 0.0319,-0.34635 0.10938,-0.67219 0.23242,-0.97754 0.12761,-0.30533 0.29851,-0.57193 0.5127,-0.79981 0.21875,-0.23241 0.47851,-0.4147 0.7793,-0.54687 0.30533,-0.13215 0.65852,-0.19823 1.05957,-0.19824 0.39192,10e-6 0.74055,0.057 1.0459,0.1709 0.30989,0.11394 0.56965,0.28256 0.77929,0.50586 0.20963,0.22331 0.37142,0.49903 0.48535,0.82714 0.11393,0.32814 0.1709,0.70639 0.1709,1.13477 0,0.32357 -0.0479,0.63119 -0.14355,0.92285 -0.0957,0.29167 -0.22331,0.56967 -0.38281,0.83399 -0.15951,0.26432 -0.34408,0.51953 -0.55372,0.76562 -0.20964,0.2461 -0.42839,0.48536 -0.65625,0.71777 l -0.69043,0.69727 c -0.23242,0.23242 -0.45117,0.46485 -0.65625,0.69726 -0.20052,0.23243 -0.38053,0.46941 -0.54003,0.71094 -0.15951,0.23698 -0.28484,0.48536 -0.37598,0.74512 l 4.12207,0 0,1.0459 -5.23633,0" />
        </g>
        <g
           id="text5860-0"
           style="font-size:10px;font-style:normal;font-variant:normal;font-weight:normal;font-stretch:normal;line-height:125%;letter-spacing:0px;word-spacing:0px;fill:#ffffff;fill-opacity:1;stroke:none;font-family:DejaVu Sans;-inkscape-font-specification:DejaVu Sans"
           transform="matrix(0,1,-1,0,0,0)">
          <path
             id="path7407"
             style="font-size:14px;font-stretch:condensed;text-align:center;text-anchor:middle;fill:#ffffff;font-family:Liberation Sans Narrow;-inkscape-font-specification:Liberation Sans Narrow Condensed"
             d="m 892.27972,126.45155 c 0,0.85678 -0.0661,1.60873 -0.19824,2.25586 -0.13217,0.64258 -0.32129,1.17806 -0.56738,1.60645 -0.2461,0.42838 -0.54688,0.74967 -0.90234,0.96387 -0.35092,0.21419 -0.7474,0.32128 -1.18946,0.32128 -0.30078,0 -0.57422,-0.0387 -0.82031,-0.11621 -0.24154,-0.0729 -0.45801,-0.18912 -0.64941,-0.34863 -0.18685,-0.1595 -0.34864,-0.36686 -0.48536,-0.62207 -0.13672,-0.25521 -0.24609,-0.56282 -0.32812,-0.92285 l 0.9707,-0.18457 c 0.10482,0.41471 0.2666,0.72005 0.48535,0.91601 0.22331,0.19141 0.50586,0.28711 0.84766,0.28711 0.27343,0 0.52181,-0.0775 0.74512,-0.23242 0.22786,-0.1595 0.41926,-0.39648 0.57422,-0.71094 0.1595,-0.31445 0.28482,-0.70865 0.37597,-1.18261 0.0866,-0.47396 0.13444,-1.02995 0.14356,-1.66797 -0.0775,0.2142 -0.18458,0.4056 -0.32129,0.57422 -0.13672,0.16862 -0.29167,0.31218 -0.46485,0.43066 -0.17318,0.11394 -0.36003,0.2028 -0.56054,0.2666 -0.20053,0.0592 -0.4056,0.0889 -0.61524,0.0889 -0.36003,0 -0.68359,-0.0775 -0.9707,-0.23242 -0.28711,-0.1595 -0.5332,-0.38053 -0.73828,-0.66309 -0.20052,-0.28255 -0.35547,-0.62206 -0.46484,-1.01855 -0.10938,-0.40104 -0.16407,-0.84537 -0.16407,-1.33301 0,-0.49674 0.057,-0.94563 0.1709,-1.34668 0.11849,-0.40103 0.28939,-0.74055 0.5127,-1.01856 0.22786,-0.28254 0.50358,-0.49901 0.82714,-0.64941 0.32813,-0.15038 0.69955,-0.22558 1.11426,-0.22559 0.87956,1e-5 1.54492,0.3965 1.9961,1.18946 0.45116,0.79297 0.67675,1.98471 0.67675,3.57519 m -1.09375,-1.18945 c 0,-0.35546 -0.0365,-0.69042 -0.10937,-1.00488 -0.0684,-0.31445 -0.1709,-0.58789 -0.30762,-0.82032 -0.13216,-0.23241 -0.2985,-0.4147 -0.49902,-0.54687 -0.20053,-0.13671 -0.43295,-0.20507 -0.69727,-0.20508 -0.24154,1e-5 -0.46029,0.0524 -0.65625,0.15723 -0.19141,0.10482 -0.35547,0.25522 -0.49218,0.45117 -0.13217,0.19141 -0.23471,0.42611 -0.30762,0.7041 -0.0729,0.278 -0.10938,0.5879 -0.10938,0.92969 0,0.32357 0.0319,0.62435 0.0957,0.90234 0.0638,0.278 0.16178,0.51954 0.29394,0.72461 0.13216,0.20053 0.29394,0.36003 0.48535,0.47852 0.19596,0.11393 0.42383,0.1709 0.6836,0.1709 0.18684,0 0.37597,-0.0387 0.56738,-0.11621 0.1914,-0.0775 0.36458,-0.19596 0.51953,-0.35547 0.15494,-0.1595 0.28255,-0.36002 0.38281,-0.60157 0.10026,-0.24608 0.15039,-0.53547 0.15039,-0.86816" />
        </g>
        <g
           id="text5860-43"
           style="font-size:10px;font-style:normal;font-variant:normal;font-weight:normal;font-stretch:normal;line-height:125%;letter-spacing:0px;word-spacing:0px;fill:#ffffff;fill-opacity:1;stroke:none;font-family:DejaVu Sans;-inkscape-font-specification:DejaVu Sans"
           transform="matrix(0.5,0.8660254,-0.8660254,0.5,0,0)">
          <path
             id="path7404"
             style="font-size:14px;font-stretch:condensed;text-align:center;text-anchor:middle;fill:#ffffff;font-family:Liberation Sans Narrow;-inkscape-font-specification:Liberation Sans Narrow Condensed"
             d="m 649.78894,540.07831 c -10e-6,0.48307 -0.0547,0.92741 -0.16406,1.33301 -0.10938,0.40104 -0.27117,0.74739 -0.48535,1.03906 -0.2142,0.28711 -0.4808,0.51269 -0.79981,0.67676 -0.31901,0.1595 -0.68587,0.23925 -1.10058,0.23925 -0.46029,0 -0.86361,-0.10709 -1.20997,-0.32129 -0.34179,-0.21419 -0.62662,-0.5218 -0.85449,-0.92285 -0.22786,-0.40559 -0.39876,-0.90006 -0.51269,-1.4834 -0.11394,-0.58788 -0.1709,-1.25553 -0.1709,-2.00292 0,-0.85677 0.0638,-1.60872 0.19141,-2.25586 0.13216,-0.64713 0.319,-1.18717 0.56054,-1.62012 0.24154,-0.43294 0.53776,-0.75878 0.88867,-0.97754 0.35091,-0.21874 0.7474,-0.32812 1.18946,-0.32813 0.26887,10e-6 0.51952,0.0342 0.75195,0.10254 0.23697,0.0684 0.45117,0.18003 0.64258,0.33496 0.1914,0.1504 0.36002,0.35093 0.50586,0.60157 0.14583,0.25066 0.26204,0.55827 0.34863,0.92285 l -0.96387,0.21191 c -0.10482,-0.4147 -0.27344,-0.71321 -0.50586,-0.89551 -0.22786,-0.18684 -0.49219,-0.28026 -0.79296,-0.28027 -0.278,1e-5 -0.52865,0.0798 -0.75196,0.23926 -0.22331,0.15951 -0.41471,0.39877 -0.57422,0.71777 -0.15495,0.31446 -0.27571,0.71095 -0.3623,1.18946 -0.082,0.47852 -0.12305,1.03679 -0.12305,1.6748 0.18229,-0.41471 0.43978,-0.72916 0.77246,-0.94336 0.33268,-0.21874 0.71549,-0.32812 1.14844,-0.32812 0.36002,0 0.68359,0.0706 0.9707,0.21191 0.29167,0.14128 0.54004,0.34636 0.74512,0.61523 0.20963,0.26433 0.37141,0.5879 0.48535,0.97071 0.11393,0.37826 0.17089,0.80436 0.1709,1.27832 m -1.02539,0.0547 c -10e-6,-0.33268 -0.0342,-0.63346 -0.10254,-0.90235 -0.0638,-0.26887 -0.16407,-0.49674 -0.30078,-0.68359 -0.13217,-0.1914 -0.29851,-0.33724 -0.49902,-0.4375 -0.19597,-0.10481 -0.42611,-0.15722 -0.69043,-0.15723 -0.1823,10e-6 -0.36687,0.0342 -0.55371,0.10254 -0.18686,0.0638 -0.35548,0.1709 -0.50586,0.32129 -0.1504,0.14584 -0.27344,0.33952 -0.36914,0.58105 -0.0957,0.24154 -0.14356,0.53549 -0.14356,0.88184 0,0.35547 0.0365,0.68815 0.10938,0.99805 0.0775,0.30534 0.18456,0.57194 0.32128,0.7998 0.14128,0.22787 0.3099,0.40788 0.50586,0.54004 0.20052,0.13216 0.42383,0.19824 0.66993,0.19824 0.24153,0 0.458,-0.0501 0.64941,-0.15039 0.19596,-0.10481 0.36002,-0.25293 0.49219,-0.44433 0.13671,-0.19597 0.23925,-0.43294 0.30761,-0.71094 0.0729,-0.27799 0.10937,-0.59017 0.10938,-0.93652" />
        </g>
        <g
           id="text5860-6"
           style="font-size:10px;font-style:normal;font-variant:normal;font-weight:normal;font-stretch:normal;line-height:125%;letter-spacing:0px;word-spacing:0px;fill:#ffffff;fill-opacity:1;stroke:none;font-family:DejaVu Sans;-inkscape-font-specification:DejaVu Sans"
           transform="matrix(0.8660254,0.5,-0.5,0.8660254,0,0)">
          <path
             id="path7401"
             style="font-size:14px;font-stretch:condensed;text-align:center;text-anchor:middle;fill:#ffffff;font-family:Liberation Sans Narrow;-inkscape-font-specification:Liberation Sans Narrow Condensed"
             d="m 233.86655,775.90552 c -1e-5,0.44206 -0.0592,0.83626 -0.17774,1.18261 -0.11394,0.34636 -0.28483,0.64031 -0.51269,0.88184 -0.22787,0.23698 -0.50815,0.41927 -0.84082,0.54688 -0.33269,0.12304 -0.7155,0.18457 -1.14844,0.18457 -0.48763,0 -0.90007,-0.0729 -1.23731,-0.21875 -0.33268,-0.15039 -0.6084,-0.34636 -0.82714,-0.58789 -0.2142,-0.2461 -0.37598,-0.52409 -0.48536,-0.83399 -0.10937,-0.31445 -0.18001,-0.63802 -0.21191,-0.9707 l 1.03906,-0.11621 c 0.0319,0.25521 0.0866,0.48763 0.16407,0.69726 0.082,0.20964 0.1914,0.38965 0.32812,0.54004 0.14127,0.15039 0.31217,0.2666 0.5127,0.34863 0.20507,0.082 0.44433,0.12305 0.71777,0.12305 0.51041,0 0.90917,-0.15267 1.19629,-0.45801 0.29166,-0.30533 0.43749,-0.75878 0.4375,-1.36035 -1e-5,-0.35546 -0.0661,-0.64029 -0.19824,-0.85449 -0.12761,-0.21875 -0.28712,-0.38737 -0.47852,-0.50586 -0.19141,-0.12304 -0.40105,-0.20507 -0.62891,-0.24609 -0.22331,-0.041 -0.43066,-0.0615 -0.62207,-0.0615 l -0.57421,0 0,-1.0664 0.54687,0 c 0.1914,0 0.38965,-0.0228 0.59473,-0.0684 0.20963,-0.0501 0.39876,-0.13672 0.56738,-0.25977 0.16862,-0.1276 0.30761,-0.29849 0.41699,-0.51269 0.11393,-0.21419 0.1709,-0.48763 0.1709,-0.82032 0,-0.51496 -0.12533,-0.92056 -0.37598,-1.21679 -0.25065,-0.30078 -0.61979,-0.45117 -1.10742,-0.45117 -0.44662,0 -0.80664,0.139 -1.08008,0.41699 -0.27344,0.278 -0.43294,0.66993 -0.47851,1.17578 l -1.01172,-0.0957 c 0.041,-0.42382 0.13444,-0.79296 0.28027,-1.10743 0.15039,-0.31444 0.33952,-0.57421 0.56739,-0.77929 0.23242,-0.20963 0.49674,-0.36458 0.79296,-0.46485 0.29623,-0.1048 0.61068,-0.15721 0.94336,-0.15722 0.44206,10e-6 0.82031,0.0684 1.13477,0.20507 0.319,0.13218 0.57877,0.31447 0.7793,0.54688 0.20051,0.22787 0.34862,0.49675 0.44433,0.80664 0.0957,0.3099 0.14355,0.64031 0.14356,0.99121 -1e-5,0.28256 -0.0319,0.54688 -0.0957,0.79297 -0.0638,0.2461 -0.16406,0.46713 -0.30078,0.66309 -0.13216,0.19597 -0.30306,0.36458 -0.51269,0.50586 -0.20509,0.14128 -0.45346,0.24837 -0.74512,0.32128 l 0,0.0274 c 0.31901,0.041 0.59472,0.12989 0.82715,0.2666 0.23697,0.13217 0.43294,0.29851 0.58789,0.49902 0.15494,0.20053 0.26887,0.42839 0.3418,0.6836 0.0775,0.25521 0.1162,0.52409 0.11621,0.80664" />
        </g>
      </g>
    </g>
  </g>
</svg>
