<?xml version="1.0" encoding="UTF-8" standalone="no"?>
<svg
   xmlns:dc="http://purl.org/dc/elements/1.1/"
   xmlns:cc="http://creativecommons.org/ns#"
   xmlns:rdf="http://www.w3.org/1999/02/22-rdf-syntax-ns#"
   xmlns:svg="http://www.w3.org/2000/svg"
   xmlns="http://www.w3.org/2000/svg"
   version="1.1"
   id="svg2"
   height="300"
   width="300">
  <defs
     id="defs4" />
  <metadata
     id="metadata7">
    <rdf:RDF>
      <cc:Work
         rdf:about="">
        <dc:format>image/svg+xml</dc:format>
        <dc:type
           rdf:resource="http://purl.org/dc/dcmitype/StillImage" />
        <dc:title></dc:title>
      </cc:Work>
    </rdf:RDF>
  </metadata>
  <g
     transform="translate(0,-752.36218)"
     id="layer1">
    <g
       transform="translate(-2e-5,20.000007)"
       id="g12155" />
    <g
       transform="translate(0,-10e-6)"
       id="g1352">
      <path
         style="fill:#000000;fill-opacity:1;stroke:none"
         d="M 0,752.36218 V 1052.3622 H 300 V 752.36218 Z m 90,50 h 120 c 8.31,0 15,6.69 15,15 v 120 c 0,8.31 -6.69,15 -15,15 H 90 c -8.31,0 -15,-6.69 -15,-15 v -120 c 0,-8.31 6.69,-15 15,-15 z"
         id="rect11308-0" />
      <rect
         transform="rotate(-30.000001)"
         y="914.34357"
         x="-419.27731"
         height="6"
         width="1"
         id="rect4330-8-3-2-0"
         style="fill:#ffffff;fill-opacity:1;stroke:none" />
      <rect
         transform="rotate(29.999999)"
         y="764.34351"
         x="678.0849"
         height="6"
         width="1"
         id="rect4330-8-3-2-6-9-4-7-6-3-9-4-5-0-1-8-1-8-8-5-2-8-5-6-9-0-6-3-6-0-2-2-0-5-9"
         style="fill:#ffffff;fill-opacity:1;stroke:none" />
      <rect
         style="fill:#ffffff;fill-opacity:1;stroke:none;stroke-width:1.22474492"
         id="rect4111-8"
         width="15"
         height="3"
         x="142.49998"
         y="954.36218" />
      <rect
         style="fill:#ffffff;fill-opacity:1;stroke:none;stroke-width:1.22474492"
         id="rect4111-0-9"
         width="15"
         height="3"
         x="114.99998"
         y="954.36218" />
      <rect
         style="fill:#ffffff;fill-opacity:1;stroke:none;stroke-width:1.22474492"
         id="rect4111-9-6"
         width="15"
         height="3"
         x="169.99998"
         y="954.36218" />
      <path
         style="fill:#ffffff;fill-opacity:1;stroke:none"
         d="m 150,812.36219 -4,-6.9375 h 8 z"
         id="path3397-2-2" />
      <rect
         style="fill:#ffffff;fill-opacity:1;stroke:none"
         id="rect11859"
         width="5"
         height="1"
         x="767.98584"
         y="-300.57352"
         transform="rotate(100)" />
      <rect
         style="fill:#ffffff;fill-opacity:1;stroke:none"
         id="rect11859-9"
         width="10"
         height="1"
         x="759.81793"
         y="308.27728"
         transform="rotate(60)" />
      <rect
         style="fill:#ffffff;fill-opacity:1;stroke:none"
         id="rect11859-90"
         width="10"
         height="1"
         x="609.81793"
         y="-569.0849"
         transform="rotate(120)" />
      <rect
         style="fill:#ffffff;fill-opacity:1;stroke:none"
         id="rect11859-5"
         width="5"
         height="1"
         x="820.08032"
         y="4.1311827"
         transform="rotate(80)" />
      <rect
         style="fill:#ffffff;fill-opacity:1;stroke:none"
         id="rect11859-5-6"
         width="5"
         height="1"
         x="805.75385"
         y="158.62166"
         transform="rotate(70)" />
      <rect
         style="fill:#ffffff;fill-opacity:1;stroke:none"
         id="rect11859-5-6-3"
         width="5"
         height="1"
         x="656.45477"
         y="513.82275"
         transform="rotate(45)" />
      <rect
         style="fill:#ffffff;fill-opacity:1;stroke:none"
         id="rect11859-5-6-3-4"
         width="5"
         height="1"
         x="498.5849"
         y="684.31793"
         transform="rotate(29.999999)" />
      <rect
         style="fill:#ffffff;fill-opacity:1;stroke:none"
         id="rect11859-3"
         width="5"
         height="1"
         x="703.14777"
         y="-441.52945"
         transform="rotate(110)" />
      <rect
         style="fill:#ffffff;fill-opacity:1;stroke:none"
         id="rect11859-3-2"
         width="5"
         height="1"
         x="444.32272"
         y="-726.95483"
         transform="rotate(135)" />
      <rect
         style="fill:#ffffff;fill-opacity:1;stroke:none"
         id="rect11859-3-2-0"
         width="5"
         height="1"
         x="238.77725"
         y="-835.31799"
         transform="rotate(150)" />
      <path
         style="fill:#000000;fill-opacity:1;stroke:#ffffff;stroke-width:1px;stroke-linecap:butt;stroke-linejoin:miter;stroke-opacity:1"
         d="m 150,877.36218 -33.36523,13.3457 33.36523,-7.68945 33.36719,7.68945 z"
         id="path1269" />
    </g>
  </g>
</svg>
