<?xml version="1.0" encoding="UTF-8" standalone="no"?>
<svg
   xmlns:dc="http://purl.org/dc/elements/1.1/"
   xmlns:cc="http://creativecommons.org/ns#"
   xmlns:rdf="http://www.w3.org/1999/02/22-rdf-syntax-ns#"
   xmlns:svg="http://www.w3.org/2000/svg"
   xmlns="http://www.w3.org/2000/svg"
   width="19"
   height="150"
   id="svg2"
   version="1.1">
  <defs
     id="defs4" />
  <metadata
     id="metadata7">
    <rdf:RDF>
      <cc:Work
         rdf:about="">
        <dc:format>image/svg+xml</dc:format>
        <dc:type
           rdf:resource="http://purl.org/dc/dcmitype/StillImage" />
        <dc:title></dc:title>
      </cc:Work>
    </rdf:RDF>
  </metadata>
  <g
     id="layer1"
     transform="translate(0,-902.36218)">
    <g
       id="g4593"
       transform="translate(-350,99.999997)">
      <rect
         y="802.36218"
         x="350"
         height="150"
         width="19"
         id="rect3333-8"
         style="fill:#323232;fill-opacity:1;stroke:none" />
      <g
         style="fill:#ffffff"
         id="g4566">
        <rect
           style="fill:#ffffff;fill-opacity:1;stroke:none"
           id="rect4256"
           width="19"
           height="1"
           x="350"
           y="876.86218" />
        <rect
           style="fill:#ffffff;fill-opacity:1;stroke:none"
           id="rect4256-2"
           width="4"
           height="1"
           x="356"
           y="861.86218" />
        <rect
           style="fill:#ffffff;fill-opacity:1;stroke:none"
           id="rect4256-2-4"
           width="4"
           height="1"
           x="356"
           y="846.86218" />
        <rect
           style="fill:#ffffff;fill-opacity:1;stroke:none"
           id="rect4256-2-4-5"
           width="4"
           height="1"
           x="356"
           y="836.86218" />
        <path
           style="fill:#ffffff;fill-opacity:1;stroke:none"
           d="m 356,826.86218 4,0 0,1 -4,0 z"
           id="rect4256-2-4-5-5" />
        <rect
           style="fill:#ffffff;fill-opacity:1;stroke:none"
           id="rect4256-2-4-5-5-1"
           width="4"
           height="1"
           x="356"
           y="816.86218" />
        <rect
           style="fill:#ffffff;fill-opacity:1;stroke:none"
           id="rect4256-2-4-5-5-1-7"
           width="4"
           height="1"
           x="356"
           y="806.86218" />
        <rect
           style="fill:#ffffff;fill-opacity:1;stroke:none"
           id="rect4256-2-5"
           width="4"
           height="1"
           x="356"
           y="-892.86224"
           transform="scale(1,-1)" />
        <path
           transform="scale(1,-1)"
           style="fill:#ffffff;fill-opacity:1;stroke:none"
           d="m 356,-907.86224 4,0 0,1 -4,0 z"
           id="rect4256-2-4-2" />
        <rect
           style="fill:#ffffff;fill-opacity:1;stroke:none"
           id="rect4256-2-4-5-7"
           width="4"
           height="1"
           x="356"
           y="-917.86224"
           transform="scale(1,-1)" />
        <rect
           style="fill:#ffffff;fill-opacity:1;stroke:none"
           id="rect4256-2-4-5-5-6"
           width="4"
           height="1"
           x="356"
           y="-927.86224"
           transform="scale(1,-1)" />
        <rect
           style="fill:#ffffff;fill-opacity:1;stroke:none"
           id="rect4256-2-4-5-5-1-1"
           width="4"
           height="1"
           x="356"
           y="-937.86224"
           transform="scale(1,-1)" />
        <rect
           style="fill:#ffffff;fill-opacity:1;stroke:none"
           id="rect4256-2-4-5-5-1-7-4"
           width="4"
           height="1"
           x="356"
           y="-947.86224"
           transform="scale(1,-1)" />
        <g
           style="font-size:40px;font-style:normal;font-variant:normal;font-weight:normal;font-stretch:normal;line-height:125%;letter-spacing:0px;word-spacing:0px;fill:#ffffff;fill-opacity:1;stroke:none;font-family:Liberation Sans Narrow;-inkscape-font-specification:Liberation Sans Narrow"
           id="text4449">
          <path
             d="m 351.18652,850.80212 0,-1.0205 1.39649,0 0,-4.69239 -1.35254,1.03028 0,-1.0791 1.41113,-1.11817 1.06445,0 0,5.85938 1.29395,0 0,1.0205 z"
             style="font-size:10px;font-weight:bold;text-align:center;text-anchor:middle;fill:#ffffff;font-family:Liberation Sans Narrow;-inkscape-font-specification:Liberation Sans Narrow Bold"
             id="path4557" />
        </g>
        <g
           style="font-size:40px;font-style:normal;font-variant:normal;font-weight:normal;font-stretch:normal;line-height:125%;letter-spacing:0px;word-spacing:0px;fill:#ffffff;fill-opacity:1;stroke:none;font-family:Liberation Sans Narrow;-inkscape-font-specification:Liberation Sans Narrow"
           id="text4449-2">
          <path
             d="m 351.0498,830.85339 0,-0.95214 c 0.12696,-0.3418 0.28321,-0.65023 0.46875,-0.9253 0.18555,-0.27506 0.37924,-0.52734 0.58106,-0.75683 0.20182,-0.22949 0.40202,-0.44271 0.60059,-0.63965 0.19856,-0.19694 0.37678,-0.38737 0.53466,-0.57129 0.15788,-0.18392 0.28646,-0.36865 0.38575,-0.5542 0.0993,-0.18554 0.14892,-0.38248 0.14892,-0.59082 0,-0.30599 -0.0627,-0.53222 -0.18799,-0.67871 -0.12533,-0.14648 -0.31006,-0.21972 -0.5542,-0.21973 -0.24088,10e-6 -0.42399,0.0789 -0.54931,0.23682 -0.12533,0.15788 -0.20752,0.3947 -0.24658,0.71045 l -1.13282,-0.0781 c 0.026,-0.27017 0.0806,-0.52408 0.16358,-0.76172 0.083,-0.23762 0.20101,-0.44595 0.354,-0.625 0.15299,-0.17903 0.34505,-0.31981 0.57617,-0.42236 0.23112,-0.10253 0.50781,-0.1538 0.83008,-0.15381 0.30273,10e-6 0.57129,0.0431 0.80566,0.1294 0.23438,0.0863 0.43213,0.21241 0.59327,0.37841 0.16113,0.16603 0.2832,0.36866 0.36621,0.60791 0.083,0.23927 0.12451,0.51189 0.12451,0.81788 0,0.32227 -0.0521,0.61361 -0.15625,0.87402 -0.10417,0.26042 -0.23763,0.50049 -0.40039,0.72021 -0.16277,0.21973 -0.34343,0.42563 -0.54199,0.61768 l -0.57618,0.56152 c -0.1888,0.1823 -0.36051,0.36622 -0.51513,0.55176 -0.15463,0.18555 -0.26937,0.38412 -0.34424,0.5957 l 2.62207,0 0,1.12793 z"
             style="font-size:10px;font-weight:bold;text-align:center;text-anchor:middle;fill:#ffffff;font-family:Liberation Sans Narrow;-inkscape-font-specification:Liberation Sans Narrow Bold"
             id="path4560" />
        </g>
        <g
           style="font-size:40px;font-style:normal;font-variant:normal;font-weight:normal;font-stretch:normal;line-height:125%;letter-spacing:0px;word-spacing:0px;fill:#ffffff;fill-opacity:1;stroke:none;font-family:Liberation Sans Narrow;-inkscape-font-specification:Liberation Sans Narrow"
           id="text4449-22">
          <path
             d="m 355,808.55359 c 0,0.34505 -0.0399,0.66162 -0.11963,0.94971 -0.0798,0.28808 -0.19857,0.53548 -0.35644,0.74218 -0.15789,0.20671 -0.35564,0.36784 -0.59327,0.4834 -0.23763,0.11556 -0.51269,0.17334 -0.82519,0.17334 -0.66407,0 -1.17432,-0.28402 -1.53076,-0.85205 -0.35645,-0.56803 -0.53467,-1.41032 -0.53467,-2.52685 0,-1.22721 0.18066,-2.15088 0.54199,-2.771 0.36133,-0.62011 0.87728,-0.93017 1.54785,-0.93018 0.22461,10e-6 0.42887,0.0285 0.6128,0.0855 0.18391,0.057 0.3483,0.14894 0.49316,0.27588 0.14485,0.12696 0.26774,0.29054 0.36865,0.49072 0.10091,0.20021 0.18229,0.44353 0.24414,0.72998 l -1.05957,0.18067 c -0.0521,-0.24088 -0.13835,-0.41422 -0.25879,-0.52002 -0.12044,-0.10579 -0.26204,-0.15869 -0.4248,-0.15869 -0.30274,0 -0.53955,0.18392 -0.71045,0.55176 -0.1709,0.36784 -0.25635,0.92611 -0.25635,1.6748 0.12044,-0.24414 0.28727,-0.43131 0.50049,-0.56152 0.21321,-0.13021 0.45491,-0.19531 0.7251,-0.19532 0.24739,10e-6 0.472,0.0497 0.67383,0.14893 0.20182,0.0993 0.37434,0.24252 0.51757,0.42969 0.14323,0.18718 0.25309,0.41585 0.32959,0.68603 0.0765,0.27019 0.11475,0.57455 0.11475,0.91309 z m -1.12793,0.0391 c 0,-0.18554 -0.0171,-0.35237 -0.0513,-0.50049 -0.0342,-0.14811 -0.0871,-0.27425 -0.15869,-0.37841 -0.0716,-0.10417 -0.15951,-0.18473 -0.26367,-0.2417 -0.10417,-0.057 -0.22299,-0.0854 -0.35645,-0.0854 -0.0977,0 -0.19694,0.0195 -0.29785,0.0586 -0.10091,0.0391 -0.18962,0.10173 -0.26611,0.18799 -0.0765,0.0863 -0.13916,0.19613 -0.18799,0.32959 -0.0488,0.13346 -0.0732,0.2946 -0.0732,0.4834 0,0.19531 0.0203,0.3776 0.061,0.54687 0.0407,0.16927 0.0977,0.31657 0.1709,0.4419 0.0732,0.12532 0.16195,0.22298 0.26611,0.29297 0.10417,0.07 0.22136,0.10498 0.35157,0.10498 0.2539,0 0.45165,-0.10987 0.59326,-0.32959 0.1416,-0.21973 0.2124,-0.52328 0.2124,-0.91065 z"
             style="font-size:10px;font-weight:bold;text-align:center;text-anchor:middle;fill:#ffffff;font-family:Liberation Sans Narrow;-inkscape-font-specification:Liberation Sans Narrow Bold"
             id="path4564" />
        </g>
        <g
           style="font-size:40px;font-style:normal;font-variant:normal;font-weight:normal;font-stretch:normal;line-height:125%;letter-spacing:0px;word-spacing:0px;fill:#ffffff;fill-opacity:1;stroke:none;font-family:Liberation Sans Narrow;-inkscape-font-specification:Liberation Sans Narrow"
           id="text4449-6">
          <path
             d="m 351.18652,910.80219 0,-1.02051 1.39649,0 0,-4.69239 -1.35254,1.03028 0,-1.0791 1.41113,-1.11817 1.06445,0 0,5.85938 1.29395,0 0,1.02051 z"
             style="font-size:10px;font-weight:bold;text-align:center;text-anchor:middle;fill:#ffffff;font-family:Liberation Sans Narrow;-inkscape-font-specification:Liberation Sans Narrow Bold"
             id="path4553" />
        </g>
        <g
           style="font-size:40px;font-style:normal;font-variant:normal;font-weight:normal;font-stretch:normal;line-height:125%;letter-spacing:0px;word-spacing:0px;fill:#ffffff;fill-opacity:1;stroke:none;font-family:Liberation Sans Narrow;-inkscape-font-specification:Liberation Sans Narrow"
           id="text4449-2-5">
          <path
             d="m 351.0498,930.85345 0,-0.95214 c 0.12696,-0.3418 0.28321,-0.65023 0.46875,-0.9253 0.18555,-0.27506 0.37924,-0.52734 0.58106,-0.75683 0.20182,-0.22949 0.40202,-0.44271 0.60059,-0.63965 0.19856,-0.19694 0.37678,-0.38737 0.53466,-0.57129 0.15788,-0.18392 0.28646,-0.36865 0.38575,-0.5542 0.0993,-0.18554 0.14892,-0.38248 0.14892,-0.59082 0,-0.30598 -0.0627,-0.53222 -0.18799,-0.67871 -0.12533,-0.14648 -0.31006,-0.21972 -0.5542,-0.21973 -0.24088,10e-6 -0.42399,0.0789 -0.54931,0.23682 -0.12533,0.15788 -0.20752,0.3947 -0.24658,0.71045 l -1.13282,-0.0781 c 0.026,-0.27017 0.0806,-0.52408 0.16358,-0.76172 0.083,-0.23762 0.20101,-0.44595 0.354,-0.625 0.15299,-0.17903 0.34505,-0.31981 0.57617,-0.42236 0.23112,-0.10253 0.50781,-0.1538 0.83008,-0.15381 0.30273,10e-6 0.57129,0.0431 0.80566,0.1294 0.23438,0.0863 0.43213,0.21241 0.59327,0.37842 0.16113,0.16602 0.2832,0.36865 0.36621,0.60791 0.083,0.23926 0.12451,0.51188 0.12451,0.81787 0,0.32227 -0.0521,0.61361 -0.15625,0.87402 -0.10417,0.26042 -0.23763,0.50049 -0.40039,0.72021 -0.16277,0.21973 -0.34343,0.42563 -0.54199,0.61768 l -0.57618,0.56152 c -0.1888,0.1823 -0.36051,0.36622 -0.51513,0.55176 -0.15463,0.18555 -0.26937,0.38412 -0.34424,0.5957 l 2.62207,0 0,1.12793 z"
             style="font-size:10px;font-weight:bold;text-align:center;text-anchor:middle;fill:#ffffff;font-family:Liberation Sans Narrow;-inkscape-font-specification:Liberation Sans Narrow Bold"
             id="path4550" />
        </g>
        <g
           style="font-size:40px;font-style:normal;font-variant:normal;font-weight:normal;font-stretch:normal;line-height:125%;letter-spacing:0px;word-spacing:0px;fill:#ffffff;fill-opacity:1;stroke:none;font-family:Liberation Sans Narrow;-inkscape-font-specification:Liberation Sans Narrow"
           id="text4449-22-6">
          <path
             d="m 355,948.55365 c 0,0.34505 -0.0399,0.66162 -0.11963,0.94971 -0.0798,0.28808 -0.19857,0.53548 -0.35644,0.74218 -0.15789,0.20671 -0.35564,0.36784 -0.59327,0.4834 -0.23763,0.11556 -0.51269,0.17334 -0.82519,0.17334 -0.66407,0 -1.17432,-0.28401 -1.53076,-0.85205 -0.35645,-0.56803 -0.53467,-1.41031 -0.53467,-2.52685 0,-1.22721 0.18066,-2.15088 0.54199,-2.771 0.36133,-0.62011 0.87728,-0.93017 1.54785,-0.93018 0.22461,1e-5 0.42887,0.0285 0.6128,0.0855 0.18391,0.057 0.3483,0.14894 0.49316,0.27588 0.14485,0.12696 0.26774,0.29054 0.36865,0.49073 0.10091,0.2002 0.18229,0.44352 0.24414,0.72998 l -1.05957,0.18066 c -0.0521,-0.24088 -0.13835,-0.41422 -0.25879,-0.52002 -0.12044,-0.10579 -0.26204,-0.15869 -0.4248,-0.15869 -0.30274,0 -0.53955,0.18392 -0.71045,0.55176 -0.1709,0.36784 -0.25635,0.92611 -0.25635,1.6748 0.12044,-0.24414 0.28727,-0.43131 0.50049,-0.56152 0.21321,-0.13021 0.45491,-0.19531 0.7251,-0.19531 0.24739,0 0.472,0.0496 0.67383,0.14892 0.20182,0.0993 0.37434,0.24252 0.51757,0.42969 0.14323,0.18718 0.25309,0.41586 0.32959,0.68603 0.0765,0.27019 0.11475,0.57455 0.11475,0.91309 z m -1.12793,0.0391 c 0,-0.18554 -0.0171,-0.35237 -0.0513,-0.50049 -0.0342,-0.1481 -0.0871,-0.27424 -0.15869,-0.37841 -0.0716,-0.10417 -0.15951,-0.18473 -0.26367,-0.2417 -0.10417,-0.057 -0.22299,-0.0855 -0.35645,-0.0855 -0.0977,0 -0.19694,0.0195 -0.29785,0.0586 -0.10091,0.0391 -0.18962,0.10173 -0.26611,0.18799 -0.0765,0.0863 -0.13916,0.19613 -0.18799,0.32959 -0.0488,0.13347 -0.0732,0.2946 -0.0732,0.4834 0,0.19531 0.0203,0.3776 0.061,0.54687 0.0407,0.16928 0.0977,0.31657 0.1709,0.4419 0.0732,0.12532 0.16195,0.22298 0.26611,0.29297 0.10417,0.07 0.22136,0.10498 0.35157,0.10498 0.2539,0 0.45165,-0.10987 0.59326,-0.32959 0.1416,-0.21973 0.2124,-0.52328 0.2124,-0.91065 z"
             style="font-size:10px;font-weight:bold;text-align:center;text-anchor:middle;fill:#ffffff;font-family:Liberation Sans Narrow;-inkscape-font-specification:Liberation Sans Narrow Bold"
             id="path4547" />
        </g>
      </g>
    </g>
  </g>
</svg>
