<?xml version="1.0" encoding="UTF-8" standalone="no"?>
<svg
   xmlns:dc="http://purl.org/dc/elements/1.1/"
   xmlns:cc="http://creativecommons.org/ns#"
   xmlns:rdf="http://www.w3.org/1999/02/22-rdf-syntax-ns#"
   xmlns:svg="http://www.w3.org/2000/svg"
   xmlns="http://www.w3.org/2000/svg"
   width="224"
   height="224"
   id="svg2"
   version="1.1">
  <defs
     id="defs4" />
  <metadata
     id="metadata7">
    <rdf:RDF>
      <cc:Work
         rdf:about="">
        <dc:format>image/svg+xml</dc:format>
        <dc:type
           rdf:resource="http://purl.org/dc/dcmitype/StillImage" />
        <dc:title></dc:title>
      </cc:Work>
    </rdf:RDF>
  </metadata>
  <g
     style="fill:#ffffff"
     id="layer1"
     transform="translate(7.0000002,-835.36218)">
    <g
       style="fill:#ffffff"
       id="g6248"
       transform="translate(-48.861706,-367.93756)">
      <g
         style="fill:#ffffff"
         id="g5686">
        <g
           style="fill:#ffffff"
           id="g5610">
          <rect
             y="1210.2997"
             x="153.36169"
             height="6"
             width="1"
             id="rect4330"
             style="fill:#ffffff;fill-opacity:1;stroke:none" />
          <rect
             transform="rotate(-10)"
             y="1217.0352"
             x="-77.375214"
             height="6"
             width="1"
             id="rect4330-8"
             style="fill:#ffffff;fill-opacity:1;stroke:none" />
          <rect
             transform="rotate(-20)"
             y="1183.6012"
             x="-305.77631"
             height="6"
             width="1"
             id="rect4330-8-3"
             style="fill:#ffffff;fill-opacity:1;stroke:none" />
          <rect
             transform="rotate(-30.000001)"
             y="1111.0138"
             x="-524.90173"
             height="6"
             width="1"
             id="rect4330-8-3-2"
             style="fill:#ffffff;fill-opacity:1;stroke:none" />
          <rect
             transform="rotate(-40.000001)"
             y="1001.4784"
             x="-728.09351"
             height="6"
             width="1"
             id="rect4330-8-3-2-6"
             style="fill:#ffffff;fill-opacity:1;stroke:none" />
          <rect
             transform="rotate(-50.000001)"
             y="858.32324"
             x="-909.17767"
             height="6"
             width="1"
             id="rect4330-8-3-2-6-9"
             style="fill:#ffffff;fill-opacity:1;stroke:none" />
          <rect
             transform="rotate(-60.000001)"
             y="685.89795"
             x="-1062.6521"
             height="6"
             width="1"
             id="rect4330-8-3-2-6-9-4"
             style="fill:#ffffff;fill-opacity:1;stroke:none" />
          <rect
             transform="rotate(-70.000001)"
             y="489.44165"
             x="-1183.8536"
             height="6"
             width="1"
             id="rect4330-8-3-2-6-9-4-7"
             style="fill:#ffffff;fill-opacity:1;stroke:none" />
          <rect
             transform="rotate(-80.000001)"
             y="274.92352"
             x="-1269.0996"
             height="6"
             width="1"
             id="rect4330-8-3-2-6-9-4-7-6"
             style="fill:#ffffff;fill-opacity:1;stroke:none" />
          <rect
             transform="rotate(-90)"
             y="48.861626"
             x="-1315.7998"
             height="6"
             width="1"
             id="rect4330-8-3-2-6-9-4-7-6-3"
             style="fill:#ffffff;fill-opacity:1;stroke:none" />
          <rect
             transform="rotate(-100)"
             y="-181.87527"
             x="-1322.5353"
             height="6"
             width="1"
             id="rect4330-8-3-2-6-9-4-7-6-3-9"
             style="fill:#ffffff;fill-opacity:1;stroke:none" />
          <rect
             transform="rotate(-110)"
             y="-410.27637"
             x="-1289.1013"
             height="6"
             width="1"
             id="rect4330-8-3-2-6-9-4-7-6-3-9-4"
             style="fill:#ffffff;fill-opacity:1;stroke:none" />
          <rect
             transform="rotate(-120)"
             y="-629.40179"
             x="-1216.5139"
             height="6"
             width="1"
             id="rect4330-8-3-2-6-9-4-7-6-3-9-4-5"
             style="fill:#ffffff;fill-opacity:1;stroke:none" />
          <rect
             transform="rotate(-130)"
             y="-832.59357"
             x="-1106.9785"
             height="6"
             width="1"
             id="rect4330-8-3-2-6-9-4-7-6-3-9-4-5-0"
             style="fill:#ffffff;fill-opacity:1;stroke:none" />
          <rect
             transform="rotate(-140)"
             y="-1013.6777"
             x="-963.82336"
             height="6"
             width="1"
             id="rect4330-8-3-2-6-9-4-7-6-3-9-4-5-0-1"
             style="fill:#ffffff;fill-opacity:1;stroke:none" />
          <rect
             transform="rotate(-150)"
             y="-1167.1521"
             x="-791.39807"
             height="6"
             width="1"
             id="rect4330-8-3-2-6-9-4-7-6-3-9-4-5-0-1-8"
             style="fill:#ffffff;fill-opacity:1;stroke:none" />
          <rect
             transform="rotate(-160)"
             y="-1288.3536"
             x="-594.94177"
             height="6"
             width="1"
             id="rect4330-8-3-2-6-9-4-7-6-3-9-4-5-0-1-8-1"
             style="fill:#ffffff;fill-opacity:1;stroke:none" />
          <rect
             transform="rotate(-170)"
             y="-1373.5996"
             x="-380.42365"
             height="6"
             width="1"
             id="rect4330-8-3-2-6-9-4-7-6-3-9-4-5-0-1-8-1-8"
             style="fill:#ffffff;fill-opacity:1;stroke:none" />
          <rect
             transform="rotate(-4.9999998)"
             y="1218.7045"
             x="38.140278"
             height="3"
             width="1"
             id="rect4330-6"
             style="fill:#ffffff;fill-opacity:1;stroke:none" />
          <rect
             transform="rotate(-15)"
             y="1205.3042"
             x="-192.30563"
             height="3"
             width="1"
             id="rect4330-6-3"
             style="fill:#ffffff;fill-opacity:1;stroke:none" />
          <rect
             transform="rotate(-25)"
             y="1152.0911"
             x="-416.92365"
             height="3"
             width="1"
             id="rect4330-6-3-6"
             style="fill:#ffffff;fill-opacity:1;stroke:none" />
          <rect
             transform="rotate(-35)"
             y="1060.6818"
             x="-628.88879"
             height="3"
             width="1"
             id="rect4330-6-3-6-2"
             style="fill:#ffffff;fill-opacity:1;stroke:none" />
          <rect
             transform="rotate(-45)"
             y="933.85388"
             x="-821.76068"
             height="3"
             width="1"
             id="rect4330-6-3-6-2-8"
             style="fill:#ffffff;fill-opacity:1;stroke:none" />
          <rect
             transform="rotate(-55)"
             y="775.46094"
             x="-989.67902"
             height="3"
             width="1"
             id="rect4330-6-3-6-2-8-7"
             style="fill:#ffffff;fill-opacity:1;stroke:none" />
          <rect
             transform="rotate(-64.999999)"
             y="590.31561"
             x="-1127.5416"
             height="3"
             width="1"
             id="rect4330-6-3-6-2-8-7-8"
             style="fill:#ffffff;fill-opacity:1;stroke:none" />
          <rect
             transform="rotate(-74.999999)"
             y="384.04349"
             x="-1231.1597"
             height="3"
             width="1"
             id="rect4330-6-3-6-2-8-7-8-4"
             style="fill:#ffffff;fill-opacity:1;stroke:none" />
          <rect
             transform="rotate(-84.999999)"
             y="162.91202"
             x="-1297.3848"
             height="3"
             width="1"
             id="rect4330-6-3-6-2-8-7-8-4-8"
             style="fill:#ffffff;fill-opacity:1;stroke:none" />
          <rect
             transform="rotate(-94.999999)"
             y="-66.359833"
             x="-1324.2046"
             height="3"
             width="1"
             id="rect4330-6-3-6-2-8-7-8-4-8-0"
             style="fill:#ffffff;fill-opacity:1;stroke:none" />
          <rect
             transform="rotate(-105)"
             y="-296.80576"
             x="-1310.8043"
             height="3"
             width="1"
             id="rect4330-6-3-6-2-8-7-8-4-8-0-2"
             style="fill:#ffffff;fill-opacity:1;stroke:none" />
          <rect
             transform="rotate(-115)"
             y="-521.42377"
             x="-1257.5912"
             height="3"
             width="1"
             id="rect4330-6-3-6-2-8-7-8-4-8-0-2-1"
             style="fill:#ffffff;fill-opacity:1;stroke:none" />
          <rect
             transform="rotate(-125)"
             y="-733.38892"
             x="-1166.1819"
             height="3"
             width="1"
             id="rect4330-6-3-6-2-8-7-8-4-8-0-2-1-0"
             style="fill:#ffffff;fill-opacity:1;stroke:none" />
          <rect
             transform="rotate(-135)"
             y="-926.2608"
             x="-1039.354"
             height="3"
             width="1"
             id="rect4330-6-3-6-2-8-7-8-4-8-0-2-1-0-3"
             style="fill:#ffffff;fill-opacity:1;stroke:none" />
          <rect
             transform="rotate(-145)"
             y="-1094.1791"
             x="-880.96106"
             height="3"
             width="1"
             id="rect4330-6-3-6-2-8-7-8-4-8-0-2-1-0-3-7"
             style="fill:#ffffff;fill-opacity:1;stroke:none" />
          <rect
             transform="rotate(-155)"
             y="-1232.0416"
             x="-695.81573"
             height="3"
             width="1"
             id="rect4330-6-3-6-2-8-7-8-4-8-0-2-1-0-3-7-2"
             style="fill:#ffffff;fill-opacity:1;stroke:none" />
          <rect
             transform="rotate(-165)"
             y="-1335.6597"
             x="-489.54361"
             height="3"
             width="1"
             id="rect4330-6-3-6-2-8-7-8-4-8-0-2-1-0-3-7-2-1"
             style="fill:#ffffff;fill-opacity:1;stroke:none" />
          <rect
             transform="rotate(-175)"
             y="-1401.8848"
             x="-268.41214"
             height="3"
             width="1"
             id="rect4330-6-3-6-2-8-7-8-4-8-0-2-1-0-3-7-2-1-4"
             style="fill:#ffffff;fill-opacity:1;stroke:none" />
        </g>
        <g
           style="fill:#ffffff"
           id="g5648">
          <rect
             transform="scale(-1)"
             y="-1420.2998"
             x="-154.36176"
             height="6"
             width="1"
             id="rect4330-8-3-2-6-9-4-7-6-3-9-4-5-0-1-8-1-8-8"
             style="fill:#ffffff;fill-opacity:1;stroke:none" />
          <rect
             transform="rotate(170)"
             y="-1427.0353"
             x="76.375153"
             height="6"
             width="1"
             id="rect4330-8-3-2-6-9-4-7-6-3-9-4-5-0-1-8-1-8-8-5"
             style="fill:#ffffff;fill-opacity:1;stroke:none" />
          <rect
             transform="rotate(160)"
             y="-1393.6013"
             x="304.77625"
             height="6"
             width="1"
             id="rect4330-8-3-2-6-9-4-7-6-3-9-4-5-0-1-8-1-8-8-5-2"
             style="fill:#ffffff;fill-opacity:1;stroke:none" />
          <rect
             transform="rotate(150)"
             y="-1321.0139"
             x="523.90167"
             height="6"
             width="1"
             id="rect4330-8-3-2-6-9-4-7-6-3-9-4-5-0-1-8-1-8-8-5-2-8"
             style="fill:#ffffff;fill-opacity:1;stroke:none" />
          <rect
             transform="rotate(140)"
             y="-1211.4785"
             x="727.09338"
             height="6"
             width="1"
             id="rect4330-8-3-2-6-9-4-7-6-3-9-4-5-0-1-8-1-8-8-5-2-8-5"
             style="fill:#ffffff;fill-opacity:1;stroke:none" />
          <rect
             transform="rotate(130)"
             y="-1068.3234"
             x="908.17755"
             height="6"
             width="1"
             id="rect4330-8-3-2-6-9-4-7-6-3-9-4-5-0-1-8-1-8-8-5-2-8-5-6"
             style="fill:#ffffff;fill-opacity:1;stroke:none" />
          <rect
             transform="rotate(120)"
             y="-895.89807"
             x="1061.652"
             height="6"
             width="1"
             id="rect4330-8-3-2-6-9-4-7-6-3-9-4-5-0-1-8-1-8-8-5-2-8-5-6-9"
             style="fill:#ffffff;fill-opacity:1;stroke:none" />
          <rect
             transform="rotate(110)"
             y="-699.44177"
             x="1182.8535"
             height="6"
             width="1"
             id="rect4330-8-3-2-6-9-4-7-6-3-9-4-5-0-1-8-1-8-8-5-2-8-5-6-9-0"
             style="fill:#ffffff;fill-opacity:1;stroke:none" />
          <rect
             transform="rotate(99.999999)"
             y="-484.92368"
             x="1268.0995"
             height="6"
             width="1"
             id="rect4330-8-3-2-6-9-4-7-6-3-9-4-5-0-1-8-1-8-8-5-2-8-5-6-9-0-6"
             style="fill:#ffffff;fill-opacity:1;stroke:none" />
          <rect
             transform="rotate(90)"
             y="-258.86179"
             x="1314.7997"
             height="6"
             width="1"
             id="rect4330-8-3-2-6-9-4-7-6-3-9-4-5-0-1-8-1-8-8-5-2-8-5-6-9-0-6-3"
             style="fill:#ffffff;fill-opacity:1;stroke:none" />
          <rect
             transform="rotate(80)"
             y="-28.124882"
             x="1321.5352"
             height="6"
             width="1"
             id="rect4330-8-3-2-6-9-4-7-6-3-9-4-5-0-1-8-1-8-8-5-2-8-5-6-9-0-6-3-6"
             style="fill:#ffffff;fill-opacity:1;stroke:none" />
          <rect
             transform="rotate(70)"
             y="200.27621"
             x="1288.1012"
             height="6"
             width="1"
             id="rect4330-8-3-2-6-9-4-7-6-3-9-4-5-0-1-8-1-8-8-5-2-8-5-6-9-0-6-3-6-0"
             style="fill:#ffffff;fill-opacity:1;stroke:none" />
          <rect
             transform="rotate(59.999999)"
             y="419.40164"
             x="1215.5138"
             height="6"
             width="1"
             id="rect4330-8-3-2-6-9-4-7-6-3-9-4-5-0-1-8-1-8-8-5-2-8-5-6-9-0-6-3-6-0-2"
             style="fill:#ffffff;fill-opacity:1;stroke:none" />
          <rect
             transform="rotate(49.999999)"
             y="622.59338"
             x="1105.9784"
             height="6"
             width="1"
             id="rect4330-8-3-2-6-9-4-7-6-3-9-4-5-0-1-8-1-8-8-5-2-8-5-6-9-0-6-3-6-0-2-2"
             style="fill:#ffffff;fill-opacity:1;stroke:none" />
          <rect
             transform="rotate(39.999999)"
             y="803.67755"
             x="962.82324"
             height="6"
             width="1"
             id="rect4330-8-3-2-6-9-4-7-6-3-9-4-5-0-1-8-1-8-8-5-2-8-5-6-9-0-6-3-6-0-2-2-0"
             style="fill:#ffffff;fill-opacity:1;stroke:none" />
          <rect
             transform="rotate(29.999999)"
             y="957.15204"
             x="790.39795"
             height="6"
             width="1"
             id="rect4330-8-3-2-6-9-4-7-6-3-9-4-5-0-1-8-1-8-8-5-2-8-5-6-9-0-6-3-6-0-2-2-0-5"
             style="fill:#ffffff;fill-opacity:1;stroke:none" />
          <rect
             transform="rotate(19.999999)"
             y="1078.3535"
             x="593.94165"
             height="6"
             width="1"
             id="rect4330-8-3-2-6-9-4-7-6-3-9-4-5-0-1-8-1-8-8-5-2-8-5-6-9-0-6-3-6-0-2-2-0-5-6"
             style="fill:#ffffff;fill-opacity:1;stroke:none" />
          <rect
             transform="rotate(9.9999995)"
             y="1163.5995"
             x="379.42355"
             height="6"
             width="1"
             id="rect4330-8-3-2-6-9-4-7-6-3-9-4-5-0-1-8-1-8-8-5-2-8-5-6-9-0-6-3-6-0-2-2-0-5-6-6"
             style="fill:#ffffff;fill-opacity:1;stroke:none" />
          <rect
             transform="rotate(175)"
             y="-1428.7046"
             x="-39.140289"
             height="3"
             width="1"
             id="rect4330-6-3-6-2-8-7-8-4-8-0-2-1-0-3-7-2-1-4-8"
             style="fill:#ffffff;fill-opacity:1;stroke:none" />
          <rect
             transform="rotate(165)"
             y="-1415.3043"
             x="191.30563"
             height="3"
             width="1"
             id="rect4330-6-3-6-2-8-7-8-4-8-0-2-1-0-3-7-2-1-4-8-2"
             style="fill:#ffffff;fill-opacity:1;stroke:none" />
          <rect
             transform="rotate(155)"
             y="-1362.0912"
             x="415.92365"
             height="3"
             width="1"
             id="rect4330-6-3-6-2-8-7-8-4-8-0-2-1-0-3-7-2-1-4-8-2-6"
             style="fill:#ffffff;fill-opacity:1;stroke:none" />
          <rect
             transform="rotate(145)"
             y="-1270.6819"
             x="627.88879"
             height="3"
             width="1"
             id="rect4330-6-3-6-2-8-7-8-4-8-0-2-1-0-3-7-2-1-4-8-2-6-7"
             style="fill:#ffffff;fill-opacity:1;stroke:none" />
          <rect
             transform="rotate(135)"
             y="-1143.854"
             x="820.76068"
             height="3"
             width="1"
             id="rect4330-6-3-6-2-8-7-8-4-8-0-2-1-0-3-7-2-1-4-8-2-6-7-7"
             style="fill:#ffffff;fill-opacity:1;stroke:none" />
          <rect
             transform="rotate(125)"
             y="-985.46106"
             x="988.67902"
             height="3"
             width="1"
             id="rect4330-6-3-6-2-8-7-8-4-8-0-2-1-0-3-7-2-1-4-8-2-6-7-7-4"
             style="fill:#ffffff;fill-opacity:1;stroke:none" />
          <rect
             transform="rotate(115)"
             y="-800.31573"
             x="1126.5416"
             height="3"
             width="1"
             id="rect4330-6-3-6-2-8-7-8-4-8-0-2-1-0-3-7-2-1-4-8-2-6-7-7-4-7"
             style="fill:#ffffff;fill-opacity:1;stroke:none" />
          <rect
             transform="rotate(105)"
             y="-594.04358"
             x="1230.1597"
             height="3"
             width="1"
             id="rect4330-6-3-6-2-8-7-8-4-8-0-2-1-0-3-7-2-1-4-8-2-6-7-7-4-7-9"
             style="fill:#ffffff;fill-opacity:1;stroke:none" />
          <rect
             transform="rotate(95.000001)"
             y="-372.91211"
             x="1296.3848"
             height="3"
             width="1"
             id="rect4330-6-3-6-2-8-7-8-4-8-0-2-1-0-3-7-2-1-4-8-2-6-7-7-4-7-9-6"
             style="fill:#ffffff;fill-opacity:1;stroke:none" />
          <rect
             transform="rotate(85.000001)"
             y="-143.64026"
             x="1323.2046"
             height="3"
             width="1"
             id="rect4330-6-3-6-2-8-7-8-4-8-0-2-1-0-3-7-2-1-4-8-2-6-7-7-4-7-9-6-7"
             style="fill:#ffffff;fill-opacity:1;stroke:none" />
          <rect
             transform="rotate(75.000001)"
             y="86.805656"
             x="1309.8043"
             height="3"
             width="1"
             id="rect4330-6-3-6-2-8-7-8-4-8-0-2-1-0-3-7-2-1-4-8-2-6-7-7-4-7-9-6-7-5"
             style="fill:#ffffff;fill-opacity:1;stroke:none" />
          <rect
             transform="rotate(65.000001)"
             y="311.42365"
             x="1256.5912"
             height="3"
             width="1"
             id="rect4330-6-3-6-2-8-7-8-4-8-0-2-1-0-3-7-2-1-4-8-2-6-7-7-4-7-9-6-7-5-5"
             style="fill:#ffffff;fill-opacity:1;stroke:none" />
          <rect
             transform="rotate(55)"
             y="523.38879"
             x="1165.1819"
             height="3"
             width="1"
             id="rect4330-6-3-6-2-8-7-8-4-8-0-2-1-0-3-7-2-1-4-8-2-6-7-7-4-7-9-6-7-5-5-6"
             style="fill:#ffffff;fill-opacity:1;stroke:none" />
          <rect
             transform="rotate(45)"
             y="716.26068"
             x="1038.354"
             height="3"
             width="1"
             id="rect4330-6-3-6-2-8-7-8-4-8-0-2-1-0-3-7-2-1-4-8-2-6-7-7-4-7-9-6-7-5-5-6-1"
             style="fill:#ffffff;fill-opacity:1;stroke:none" />
          <rect
             transform="rotate(35)"
             y="884.17902"
             x="879.96106"
             height="3"
             width="1"
             id="rect4330-6-3-6-2-8-7-8-4-8-0-2-1-0-3-7-2-1-4-8-2-6-7-7-4-7-9-6-7-5-5-6-1-8"
             style="fill:#ffffff;fill-opacity:1;stroke:none" />
          <rect
             transform="rotate(25.000001)"
             y="1022.0416"
             x="694.81573"
             height="3"
             width="1"
             id="rect4330-6-3-6-2-8-7-8-4-8-0-2-1-0-3-7-2-1-4-8-2-6-7-7-4-7-9-6-7-5-5-6-1-8-4"
             style="fill:#ffffff;fill-opacity:1;stroke:none" />
          <rect
             transform="rotate(15.000001)"
             y="1125.6597"
             x="488.54361"
             height="3"
             width="1"
             id="rect4330-6-3-6-2-8-7-8-4-8-0-2-1-0-3-7-2-1-4-8-2-6-7-7-4-7-9-6-7-5-5-6-1-8-4-6"
             style="fill:#ffffff;fill-opacity:1;stroke:none" />
          <rect
             transform="rotate(5.000001)"
             y="1191.8848"
             x="267.41214"
             height="3"
             width="1"
             id="rect4330-6-3-6-2-8-7-8-4-8-0-2-1-0-3-7-2-1-4-8-2-6-7-7-4-7-9-6-7-5-5-6-1-8-4-6-6"
             style="fill:#ffffff;fill-opacity:1;stroke:none" />
        </g>
      </g>
      <g
         style="fill:#ffffff"
         id="g6214">
        <g
           style="font-style:normal;font-variant:normal;font-weight:bold;font-stretch:condensed;font-size:40px;line-height:125%;font-family:'Liberation Sans Narrow';-inkscape-font-specification:'Liberation Sans Narrow Bold Condensed';letter-spacing:0px;word-spacing:0px;fill:#ffffff;fill-opacity:1;stroke:none"
           id="text5762">
          <path
             d="m 155.994,1221.5131 c 0,0.7233 -0.0555,1.3338 -0.1665,1.8315 -0.10743,0.4941 -0.25782,0.8952 -0.45117,1.2031 -0.18978,0.3044 -0.41716,0.5246 -0.68213,0.6607 -0.2614,0.1325 -0.54786,0.1987 -0.85938,0.1987 -0.31152,0 -0.59798,-0.066 -0.85937,-0.1987 -0.2614,-0.1325 -0.48698,-0.3509 -0.67676,-0.6553 -0.1862,-0.3079 -0.33301,-0.709 -0.44043,-1.2031 -0.10384,-0.4977 -0.15576,-1.11 -0.15576,-1.8369 0,-0.7627 0.0519,-1.3929 0.15576,-1.8907 0.10742,-0.5013 0.25602,-0.9005 0.4458,-1.1977 0.18978,-0.2972 0.41716,-0.5049 0.68213,-0.6231 0.26855,-0.1217 0.56396,-0.1826 0.88623,-0.1826 0.30078,0 0.58008,0.061 0.83789,0.1826 0.26139,0.1182 0.48698,0.3259 0.67676,0.6231 0.18977,0.2972 0.33837,0.6964 0.4458,1.1977 0.10742,0.4978 0.16113,1.128 0.16113,1.8907 m -1.24072,0 c 0,-0.5336 -0.0161,-0.974 -0.0483,-1.3213 -0.0322,-0.3509 -0.0841,-0.6284 -0.15576,-0.8325 -0.0716,-0.2077 -0.16472,-0.3527 -0.2793,-0.4351 -0.111,-0.082 -0.24707,-0.1235 -0.4082,-0.1235 -0.17188,0 -0.3169,0.043 -0.43506,0.1289 -0.11817,0.082 -0.21305,0.2273 -0.28467,0.435 -0.0716,0.2077 -0.12353,0.487 -0.15576,0.8379 -0.0286,0.3474 -0.043,0.7842 -0.043,1.3106 0,0.5192 0.0161,0.9524 0.0483,1.2998 0.0322,0.3473 0.0824,0.6266 0.15039,0.8379 0.0716,0.2076 0.16471,0.3545 0.2793,0.4404 0.11458,0.086 0.25602,0.1289 0.42432,0.1289 0.16113,0 0.29898,-0.043 0.41357,-0.1289 0.11458,-0.086 0.20768,-0.2328 0.2793,-0.4404 0.0752,-0.2113 0.1289,-0.4906 0.16113,-0.8379 0.0358,-0.3474 0.0537,-0.7806 0.0537,-1.2998"
             style="font-size:11px;text-align:center;text-anchor:middle;fill:#ffffff"
             id="path6163" />
        </g>
        <g
           transform="rotate(30)"
           style="font-style:normal;font-variant:normal;font-weight:bold;font-stretch:condensed;font-size:40px;line-height:125%;font-family:'Liberation Sans Narrow';-inkscape-font-specification:'Liberation Sans Narrow Bold Condensed';letter-spacing:0px;word-spacing:0px;fill:#ffffff;fill-opacity:1;stroke:none"
           id="text5762-3">
          <path
             d="m 793.0733,970.052 c 0,0.34375 -0.0466,0.65349 -0.13965,0.9292 -0.0895,0.27214 -0.22738,0.50488 -0.41357,0.69824 -0.1862,0.19336 -0.41716,0.34196 -0.69287,0.4458 -0.27214,0.10026 -0.59082,0.15039 -0.95606,0.15039 -0.40462,0 -0.74658,-0.0627 -1.02587,-0.18798 -0.27572,-0.12533 -0.5031,-0.29004 -0.68213,-0.49414 -0.17546,-0.20769 -0.30795,-0.44222 -0.39746,-0.70362 -0.0895,-0.26139 -0.14681,-0.52636 -0.17188,-0.79492 l 1.25684,-0.13428 c 0.0179,0.16114 0.0501,0.30974 0.0967,0.4458 0.0501,0.13249 0.11637,0.24708 0.19873,0.34375 0.0824,0.0967 0.18261,0.17188 0.30078,0.22559 0.11816,0.0501 0.25781,0.0752 0.41894,0.0752 0.2972,0 0.52816,-0.0895 0.69287,-0.26856 0.16471,-0.17903 0.24707,-0.45296 0.24708,-0.82178 -10e-6,-0.22558 -0.0394,-0.40641 -0.11817,-0.54248 -0.0752,-0.13606 -0.17367,-0.2399 -0.29541,-0.31152 -0.11817,-0.0752 -0.24707,-0.12532 -0.38672,-0.15039 -0.13607,-0.0251 -0.26497,-0.0376 -0.38672,-0.0376 h -0.43506 v -1.21924 h 0.40821 c 0.12174,10e-6 0.24707,-0.0143 0.37597,-0.043 0.12891,-0.0286 0.24349,-0.0806 0.34375,-0.15576 0.10384,-0.0752 0.18799,-0.17903 0.25245,-0.31152 0.0644,-0.13606 0.0967,-0.30794 0.0967,-0.51563 -10e-6,-0.31151 -0.0716,-0.555 -0.21485,-0.73046 -0.13965,-0.17903 -0.34733,-0.26855 -0.62305,-0.26856 -0.25423,10e-6 -0.46012,0.0859 -0.61767,0.25781 -0.15755,0.17188 -0.24707,0.41537 -0.26856,0.73047 l -1.24072,-0.10742 c 0.0358,-0.35449 0.11638,-0.66243 0.2417,-0.92383 0.12533,-0.26138 0.28288,-0.47802 0.47266,-0.6499 0.18977,-0.17187 0.40641,-0.29898 0.6499,-0.38135 0.24707,-0.0859 0.50846,-0.1289 0.78418,-0.1289 0.36523,0 0.67854,0.0537 0.93994,0.16113 0.26139,0.10743 0.47623,0.25245 0.64453,0.43506 0.16829,0.18262 0.29183,0.39567 0.37061,0.63916 0.0788,0.24349 0.11816,0.5031 0.11816,0.77881 0,0.22201 -0.0269,0.42969 -0.0806,0.62304 -0.0537,0.18979 -0.13429,0.36166 -0.2417,0.51563 -0.10743,0.15039 -0.24529,0.28109 -0.41358,0.39209 -0.16472,0.10742 -0.36166,0.18799 -0.59082,0.2417 v 0.0215 c 0.25423,0.0358 0.47444,0.10743 0.66065,0.21484 0.18977,0.10385 0.34553,0.23455 0.46728,0.39209 0.12174,0.15756 0.21126,0.3366 0.26856,0.53711 0.0573,0.19695 0.0859,0.40642 0.0859,0.62842"
             style="font-size:11px;text-align:center;text-anchor:middle;fill:#ffffff"
             id="path6166" />
        </g>
        <g
           transform="rotate(60)"
           style="font-style:normal;font-variant:normal;font-weight:bold;font-stretch:condensed;font-size:40px;line-height:125%;font-family:'Liberation Sans Narrow';-inkscape-font-specification:'Liberation Sans Narrow Bold Condensed';letter-spacing:0px;word-spacing:0px;fill:#ffffff;fill-opacity:1;stroke:none"
           id="text5762-9">
          <path
             d="m 1218.1904,431.92795 c 0,0.37956 -0.045,0.72868 -0.1342,1.04736 -0.086,0.31511 -0.2167,0.58724 -0.3921,0.81641 -0.1719,0.22558 -0.3886,0.40283 -0.6499,0.53174 -0.2614,0.12532 -0.564,0.18798 -0.9078,0.18798 -0.7304,0 -1.2926,-0.31152 -1.6865,-0.93457 -0.3903,-0.62662 -0.5854,-1.55403 -0.5854,-2.78222 0,-1.34993 0.1987,-2.36507 0.5962,-3.04541 0.3974,-0.68391 0.965,-1.02587 1.7026,-1.02588 0.2471,10e-6 0.4709,0.0322 0.6714,0.0967 0.2041,0.0609 0.3849,0.16114 0.5425,0.30078 0.1611,0.13965 0.2972,0.32048 0.4082,0.54248 0.111,0.21843 0.2005,0.48519 0.2685,0.80029 l -1.1655,0.19873 c -0.057,-0.26496 -0.1522,-0.45474 -0.2847,-0.56933 -0.1325,-0.11816 -0.2882,-0.17724 -0.4673,-0.17725 -0.333,1e-5 -0.5944,0.20232 -0.7841,0.60693 -0.1862,0.40463 -0.2793,1.01873 -0.2793,1.84229 0.1325,-0.26855 0.3151,-0.47444 0.5478,-0.61768 0.2363,-0.14322 0.5031,-0.21483 0.8003,-0.21484 0.2721,10e-6 0.5192,0.0555 0.7412,0.1665 0.222,0.10743 0.4118,0.26498 0.5694,0.47266 0.1575,0.20411 0.2775,0.45476 0.3598,0.75195 0.086,0.29721 0.1289,0.63201 0.1289,1.0044 m -1.2407,0.043 c 0,-0.2041 -0.02,-0.38672 -0.059,-0.54785 -0.036,-0.16472 -0.093,-0.30436 -0.1718,-0.41895 -0.079,-0.11458 -0.1755,-0.20231 -0.2901,-0.26318 -0.1146,-0.0645 -0.2453,-0.0967 -0.3921,-0.0967 -0.1074,0 -0.2166,0.0215 -0.3276,0.0645 -0.111,0.043 -0.2095,0.1128 -0.2954,0.20947 -0.082,0.0931 -0.1504,0.21306 -0.2041,0.35987 -0.054,0.14681 -0.081,0.32405 -0.081,0.53173 0,0.21485 0.022,0.41537 0.065,0.60157 0.046,0.1862 0.1092,0.34912 0.1879,0.48877 0.082,0.13607 0.1809,0.24349 0.2955,0.32226 0.1145,0.0752 0.2434,0.1128 0.3867,0.11279 0.2793,1e-5 0.4959,-0.11995 0.6499,-0.35986 0.1575,-0.24349 0.2363,-0.57828 0.2363,-1.00439"
             style="font-size:11px;text-align:center;text-anchor:middle;fill:#ffffff"
             id="path6169" />
        </g>
        <g
           transform="rotate(90)"
           style="font-style:normal;font-variant:normal;font-weight:bold;font-stretch:condensed;font-size:40px;line-height:125%;font-family:'Liberation Sans Narrow';-inkscape-font-specification:'Liberation Sans Narrow Bold Condensed';letter-spacing:0px;word-spacing:0px;fill:#ffffff;fill-opacity:1;stroke:none"
           id="text5762-4">
          <path
             d="m 1317.4857,-247.75041 c 0,1.34277 -0.2023,2.34717 -0.6069,3.01318 -0.4011,0.66602 -0.9722,0.99902 -1.7134,0.99903 -0.2686,-1e-5 -0.5085,-0.034 -0.7197,-0.10206 -0.2113,-0.068 -0.3975,-0.17366 -0.5586,-0.31689 -0.1576,-0.14323 -0.2918,-0.32764 -0.4028,-0.55322 -0.1075,-0.22559 -0.1934,-0.49414 -0.2579,-0.80567 l 1.1602,-0.19873 c 0.057,0.26856 0.1522,0.46729 0.2847,0.59619 0.136,0.12891 0.3061,0.19336 0.5102,0.19336 0.1683,0 0.3169,-0.0483 0.4458,-0.14502 0.1325,-0.0967 0.2453,-0.24348 0.3384,-0.44043 0.097,-0.19693 0.1701,-0.44579 0.2202,-0.74658 0.054,-0.30436 0.081,-0.66243 0.081,-1.07422 -0.057,0.13966 -0.1343,0.26319 -0.231,0.37061 -0.097,0.10742 -0.2059,0.19694 -0.3276,0.26855 -0.1218,0.0716 -0.2525,0.12712 -0.3921,0.16651 -0.1361,0.0358 -0.2757,0.0537 -0.4189,0.0537 -0.2686,0 -0.5139,-0.0573 -0.7359,-0.17188 -0.2184,-0.11816 -0.4064,-0.28645 -0.564,-0.50488 -0.1539,-0.21842 -0.2739,-0.4816 -0.3598,-0.78955 -0.082,-0.31152 -0.1236,-0.66243 -0.1236,-1.05273 0,-0.40104 0.048,-0.75911 0.1451,-1.07422 0.1002,-0.3151 0.2417,-0.58007 0.4243,-0.79493 0.1862,-0.21841 0.4136,-0.38313 0.6821,-0.49414 0.2721,-0.11457 0.5783,-0.17186 0.9185,-0.17187 0.358,1e-5 0.6731,0.0752 0.9453,0.22559 0.2757,0.14681 0.5049,0.37598 0.6875,0.6875 0.1862,0.30794 0.3276,0.70003 0.4243,1.17626 0.097,0.47267 0.145,1.03484 0.145,1.68653 m -1.3105,-1.05811 c 0,-0.21484 -0.02,-0.41536 -0.059,-0.60156 -0.039,-0.18977 -0.099,-0.3527 -0.1773,-0.48877 -0.079,-0.13964 -0.1754,-0.24885 -0.29,-0.32764 -0.1146,-0.0788 -0.2471,-0.11815 -0.3975,-0.11816 -0.1396,1e-5 -0.2631,0.0322 -0.3706,0.0967 -0.1074,0.0609 -0.2005,0.1504 -0.2793,0.26855 -0.075,0.11817 -0.1324,0.2614 -0.1718,0.42969 -0.039,0.1683 -0.059,0.35808 -0.059,0.56934 0,0.19694 0.018,0.38135 0.054,0.55322 0.039,0.1683 0.095,0.31511 0.1665,0.44043 0.075,0.12175 0.1683,0.21843 0.2793,0.29004 0.1146,0.068 0.2435,0.10205 0.3867,0.10205 0.1146,0 0.2256,-0.0251 0.333,-0.0752 0.111,-0.0501 0.2095,-0.12532 0.2954,-0.22558 0.09,-0.10026 0.1594,-0.22558 0.2095,-0.37598 0.054,-0.15396 0.081,-0.333 0.081,-0.53711"
             style="font-size:11px;text-align:center;text-anchor:middle;fill:#ffffff"
             id="path6172" />
        </g>
        <g
           transform="rotate(120)"
           style="font-style:normal;font-variant:normal;font-weight:bold;font-stretch:condensed;font-size:40px;line-height:125%;font-family:'Liberation Sans Narrow';-inkscape-font-specification:'Liberation Sans Narrow Bold Condensed';letter-spacing:0px;word-spacing:0px;fill:#ffffff;fill-opacity:1;stroke:none"
           id="text5762-18">
          <path
             d="m 1057.7156,-880.89807 v -1.12256 h 1.5361 v -5.16162 l -1.4878,1.1333 v -1.18701 l 1.5523,-1.22998 h 1.1709 v 6.44531 h 1.4233 v 1.12256 h -4.1948"
             style="font-size:11px;text-align:center;text-anchor:middle;fill:#ffffff"
             id="path6175" />
          <path
             d="m 1062.4636,-880.89807 v -1.04736 c 0.1397,-0.37598 0.3115,-0.71436 0.5156,-1.01514 0.2041,-0.30436 0.4172,-0.58187 0.6392,-0.83252 0.222,-0.25423 0.4422,-0.48877 0.6607,-0.70361 0.2184,-0.21842 0.4135,-0.4279 0.5854,-0.62842 0.1755,-0.2041 0.3169,-0.4082 0.4243,-0.61231 0.111,-0.20409 0.1665,-0.42073 0.1665,-0.6499 0,-0.33658 -0.07,-0.58544 -0.2095,-0.74658 -0.136,-0.16113 -0.3383,-0.24169 -0.6069,-0.2417 -0.265,1e-5 -0.4673,0.0877 -0.6069,0.26318 -0.1361,0.17188 -0.2256,0.43149 -0.2686,0.77881 l -1.2461,-0.0859 c 0.029,-0.29719 0.088,-0.57649 0.1773,-0.83789 0.093,-0.26138 0.2238,-0.49055 0.3921,-0.6875 0.1683,-0.19693 0.3795,-0.3509 0.6338,-0.46191 0.2542,-0.11458 0.5586,-0.17187 0.913,-0.17188 0.333,10e-6 0.6285,0.0484 0.8863,0.14502 0.2578,0.0931 0.4744,0.23097 0.6499,0.41358 0.179,0.18262 0.3133,0.40642 0.4028,0.67139 0.093,0.26139 0.1397,0.56039 0.1397,0.89697 0,0.3545 -0.057,0.67497 -0.1719,0.96142 -0.1146,0.28647 -0.2614,0.55144 -0.4404,0.79493 -0.1791,0.23991 -0.3778,0.46549 -0.5962,0.67675 l -0.6338,0.61768 c -0.2077,0.20052 -0.3975,0.40283 -0.5694,0.60693 -0.1683,0.20411 -0.2936,0.42253 -0.3759,0.65528 h 2.8842 v 1.24072 h -4.3452"
             style="font-size:11px;text-align:center;text-anchor:middle;fill:#ffffff"
             id="path6177" />
        </g>
        <g
           transform="rotate(150)"
           style="font-style:normal;font-variant:normal;font-weight:bold;font-stretch:condensed;font-size:40px;line-height:125%;font-family:'Liberation Sans Narrow';-inkscape-font-specification:'Liberation Sans Narrow Bold Condensed';letter-spacing:0px;word-spacing:0px;fill:#ffffff;fill-opacity:1;stroke:none"
           id="text5762-31">
          <path
             d="m 519.96521,-1306.0139 v -1.1226 h 1.53613 v -5.1616 l -1.48779,1.1333 v -1.187 l 1.55225,-1.23 h 1.17089 v 6.4453 h 1.42334 v 1.1226 h -4.19482"
             style="font-size:11px;text-align:center;text-anchor:middle;fill:#ffffff"
             id="path6180" />
          <path
             d="m 529.16589,-1308.533 c 0,0.3796 -0.0501,0.7305 -0.15039,1.0528 -0.0967,0.3187 -0.2417,0.5962 -0.43506,0.8325 -0.19336,0.2327 -0.43327,0.4154 -0.71972,0.5478 -0.28646,0.129 -0.61768,0.1934 -0.99365,0.1934 -0.34734,0 -0.64991,-0.05 -0.90772,-0.1504 -0.25781,-0.1038 -0.47624,-0.2453 -0.65527,-0.4243 -0.17546,-0.1826 -0.31511,-0.3957 -0.41895,-0.6392 -0.10026,-0.2434 -0.16829,-0.5048 -0.2041,-0.7841 l 1.23535,-0.1236 c 0.0251,0.1182 0.0573,0.2328 0.0967,0.3438 0.043,0.111 0.10205,0.2094 0.17725,0.2954 0.0788,0.086 0.17366,0.1557 0.28467,0.2095 0.111,0.05 0.24706,0.075 0.4082,0.075 0.30794,0 0.55322,-0.12 0.73584,-0.3599 0.18261,-0.2399 0.27392,-0.5855 0.27392,-1.0366 0,-0.2006 -0.0233,-0.3814 -0.0698,-0.5425 -0.043,-0.1611 -0.10743,-0.299 -0.19336,-0.4136 -0.0824,-0.1146 -0.18441,-0.2023 -0.30615,-0.2632 -0.12175,-0.061 -0.25961,-0.091 -0.41358,-0.091 -0.2041,0 -0.37418,0.048 -0.51025,0.145 -0.13249,0.093 -0.24349,0.2077 -0.33301,0.3438 h -1.20849 l 0.21484,-4.2593 h 3.73291 v 1.1226 h -2.60498 l -0.10205,1.9121 c 0.12174,-0.1325 0.27571,-0.2453 0.46191,-0.3384 0.18978,-0.097 0.40999,-0.145 0.66065,-0.145 0.30436,0 0.57649,0.061 0.8164,0.1826 0.24349,0.1217 0.44759,0.2918 0.61231,0.5103 0.16829,0.2184 0.2954,0.4816 0.38135,0.7895 0.0895,0.3044 0.13427,0.6427 0.13427,1.0151"
             style="font-size:11px;text-align:center;text-anchor:middle;fill:#ffffff"
             id="path6182" />
        </g>
        <g
           transform="scale(-1)"
           style="font-style:normal;font-variant:normal;font-weight:bold;font-stretch:condensed;font-size:40px;line-height:125%;font-family:'Liberation Sans Narrow';-inkscape-font-specification:'Liberation Sans Narrow Bold Condensed';letter-spacing:0px;word-spacing:0px;fill:#ffffff;fill-opacity:1;stroke:none"
           id="text5762-7">
          <path
             d="m -158.58824,-1405.2998 v -1.1226 h 1.53613 v -5.1616 l -1.48779,1.1333 v -1.187 l 1.55224,-1.23 h 1.1709 v 6.4453 h 1.42334 v 1.1226 h -4.19482"
             style="font-size:11px;text-align:center;text-anchor:middle;fill:#ffffff"
             id="path6185" />
          <path
             d="m -149.41441,-1407.4321 c -1e-5,0.3258 -0.0448,0.6266 -0.13428,0.9023 -0.0859,0.2722 -0.22022,0.5085 -0.40283,0.709 -0.18262,0.1969 -0.41358,0.3509 -0.69287,0.4619 -0.27572,0.111 -0.60694,0.1665 -0.99366,0.1665 -0.38314,0 -0.71435,-0.056 -0.99365,-0.1665 -0.2793,-0.111 -0.51204,-0.265 -0.69824,-0.4619 -0.18262,-0.2005 -0.31869,-0.4368 -0.4082,-0.709 -0.0859,-0.2721 -0.12891,-0.5693 -0.12891,-0.8916 0,-0.2757 0.0358,-0.5192 0.10742,-0.7305 0.0716,-0.2148 0.16471,-0.3992 0.2793,-0.5532 0.11816,-0.1539 0.25423,-0.2757 0.4082,-0.3652 0.15397,-0.093 0.31152,-0.1558 0.47266,-0.188 v -0.022 c -0.17188,-0.046 -0.32764,-0.1235 -0.46729,-0.2309 -0.13965,-0.1075 -0.25781,-0.2364 -0.35449,-0.3868 -0.0967,-0.1503 -0.17187,-0.3169 -0.22559,-0.4995 -0.0501,-0.1862 -0.0752,-0.3795 -0.0752,-0.5801 0,-0.3007 0.0448,-0.5747 0.13428,-0.8217 0.0895,-0.2471 0.22021,-0.4584 0.39209,-0.6338 0.17545,-0.1755 0.39209,-0.3097 0.6499,-0.4028 0.25781,-0.097 0.55501,-0.1451 0.8916,-0.1451 0.36165,0 0.67317,0.05 0.93457,0.1504 0.26497,0.097 0.4816,0.2346 0.6499,0.4136 0.17187,0.1755 0.29899,0.3867 0.38135,0.6338 0.0824,0.2471 0.12353,0.5192 0.12354,0.8164 -1e-5,0.1969 -0.0269,0.3885 -0.0806,0.5747 -0.0501,0.1826 -0.12354,0.3491 -0.22022,0.4995 -0.0967,0.1504 -0.21484,0.2775 -0.35449,0.3814 -0.13965,0.1038 -0.2972,0.1772 -0.47265,0.2202 v 0.022 c 0.18261,0.036 0.3509,0.102 0.50488,0.1987 0.15755,0.093 0.29361,0.2166 0.4082,0.3706 0.11458,0.1504 0.2041,0.333 0.26856,0.5478 0.0644,0.2113 0.0967,0.4512 0.0967,0.7198 m -1.42334,-3.4536 c -1e-5,-0.1504 -0.0143,-0.2883 -0.043,-0.4136 -0.0251,-0.1289 -0.0698,-0.2381 -0.13428,-0.3277 -0.0609,-0.093 -0.14323,-0.1647 -0.24707,-0.2148 -0.10384,-0.054 -0.23454,-0.081 -0.39209,-0.081 -0.15397,0 -0.28288,0.027 -0.38672,0.081 -0.10026,0.05 -0.18262,0.1218 -0.24707,0.2148 -0.0609,0.09 -0.10384,0.1988 -0.1289,0.3277 -0.0251,0.1253 -0.0376,0.2632 -0.0376,0.4136 0,0.1325 0.0107,0.2631 0.0322,0.392 0.0215,0.129 0.0609,0.2453 0.11817,0.3492 0.0609,0.1002 0.14323,0.1826 0.24707,0.247 0.10742,0.064 0.24528,0.097 0.41357,0.097 0.17546,0 0.31689,-0.032 0.42432,-0.097 0.10742,-0.064 0.18798,-0.1486 0.2417,-0.2524 0.0573,-0.1038 0.0949,-0.2202 0.11279,-0.3491 0.0179,-0.1289 0.0268,-0.2578 0.0269,-0.3867 m 0.14502,3.33 c -1e-5,-0.1539 -0.0143,-0.3025 -0.043,-0.4458 -0.0286,-0.1432 -0.0788,-0.2685 -0.15039,-0.3759 -0.0716,-0.111 -0.17188,-0.1988 -0.30078,-0.2632 -0.12533,-0.068 -0.28468,-0.1021 -0.47803,-0.1021 -0.17546,0 -0.32227,0.034 -0.44043,0.1021 -0.11817,0.064 -0.21306,0.1522 -0.28467,0.2632 -0.0716,0.111 -0.12354,0.2399 -0.15576,0.3867 -0.0322,0.1432 -0.0483,0.2954 -0.0483,0.4565 0,0.1898 0.0161,0.3635 0.0483,0.521 0.0322,0.1576 0.0841,0.2936 0.15576,0.4082 0.0752,0.111 0.17366,0.197 0.29541,0.2578 0.12532,0.061 0.28109,0.091 0.46729,0.091 0.18619,0 0.33837,-0.03 0.45654,-0.091 0.12174,-0.064 0.21663,-0.1539 0.28467,-0.2685 0.0716,-0.1146 0.12174,-0.2507 0.15039,-0.4082 0.0286,-0.1612 0.043,-0.3384 0.043,-0.5318"
             style="font-size:11px;text-align:center;text-anchor:middle;fill:#ffffff"
             id="path6187" />
        </g>
        <g
           transform="rotate(-150)"
           style="font-style:normal;font-variant:normal;font-weight:bold;font-stretch:condensed;font-size:40px;line-height:125%;font-family:'Liberation Sans Narrow';-inkscape-font-specification:'Liberation Sans Narrow Bold Condensed';letter-spacing:0px;word-spacing:0px;fill:#ffffff;fill-opacity:1;stroke:none"
           id="text5762-0">
          <path
             d="m -795.65747,-1152.1348 v -1.0473 c 0.13965,-0.376 0.31152,-0.7144 0.51562,-1.0152 0.2041,-0.3043 0.41716,-0.5818 0.63916,-0.8325 0.22201,-0.2542 0.44222,-0.4888 0.66065,-0.7036 0.21842,-0.2184 0.41357,-0.4279 0.58545,-0.6284 0.17545,-0.2041 0.31689,-0.4082 0.42431,-0.6123 0.111,-0.2041 0.16651,-0.4208 0.16651,-0.6499 0,-0.3366 -0.0698,-0.5855 -0.20947,-0.7466 -0.13607,-0.1611 -0.33839,-0.2417 -0.60694,-0.2417 -0.26497,0 -0.46728,0.088 -0.60693,0.2632 -0.13607,0.1719 -0.22559,0.4315 -0.26856,0.7788 l -1.24609,-0.086 c 0.0286,-0.2971 0.0877,-0.5764 0.17725,-0.8378 0.0931,-0.2614 0.22379,-0.4906 0.39209,-0.6875 0.16829,-0.197 0.37955,-0.3509 0.63379,-0.462 0.25423,-0.1145 0.55859,-0.1718 0.91308,-0.1718 0.33301,0 0.62842,0.048 0.88623,0.145 0.25781,0.093 0.47444,0.231 0.6499,0.4136 0.17904,0.1826 0.31331,0.4064 0.40284,0.6714 0.0931,0.2614 0.13964,0.5603 0.13964,0.8969 0,0.3545 -0.0573,0.675 -0.17187,0.9614 -0.11459,0.2865 -0.2614,0.5515 -0.44043,0.795 -0.17904,0.2399 -0.37777,0.4655 -0.59619,0.6767 l -0.63379,0.6177 c -0.20769,0.2005 -0.39746,0.4028 -0.56934,0.6069 -0.16829,0.2041 -0.29362,0.4226 -0.37597,0.6553 h 2.88427 v 1.2407 h -4.34521"
             style="font-size:11px;text-align:center;text-anchor:middle;fill:#ffffff"
             id="path6190" />
          <path
             d="m -790.3938,-1152.1348 v -1.1225 h 1.53613 v -5.1616 l -1.48779,1.1333 v -1.1871 l 1.55225,-1.2299 h 1.1709 v 6.4453 h 1.42334 v 1.1225 h -4.19483"
             style="font-size:11px;text-align:center;text-anchor:middle;fill:#ffffff"
             id="path6192" />
        </g>
        <g
           transform="rotate(-120)"
           style="font-style:normal;font-variant:normal;font-weight:bold;font-stretch:condensed;font-size:40px;line-height:125%;font-family:'Liberation Sans Narrow';-inkscape-font-specification:'Liberation Sans Narrow Bold Condensed';letter-spacing:0px;word-spacing:0px;fill:#ffffff;fill-opacity:1;stroke:none"
           id="text5762-2">
          <path
             d="m -1220.7081,-614.40179 v -1.04737 c 0.1396,-0.37597 0.3115,-0.71435 0.5156,-1.01513 0.2041,-0.30436 0.4171,-0.58187 0.6392,-0.83252 0.222,-0.25423 0.4422,-0.48877 0.6606,-0.70362 0.2184,-0.21842 0.4136,-0.42789 0.5854,-0.62842 0.1755,-0.20409 0.3169,-0.40819 0.4244,-0.6123 0.111,-0.2041 0.1665,-0.42073 0.1665,-0.6499 0,-0.33658 -0.07,-0.58545 -0.2095,-0.74658 -0.1361,-0.16113 -0.3384,-0.2417 -0.6069,-0.2417 -0.265,0 -0.4673,0.0877 -0.607,0.26318 -0.136,0.17188 -0.2256,0.43148 -0.2685,0.77881 l -1.2461,-0.0859 c 0.029,-0.29719 0.088,-0.57649 0.1772,-0.83789 0.093,-0.26139 0.2238,-0.49055 0.3921,-0.6875 0.1683,-0.19693 0.3796,-0.3509 0.6338,-0.46191 0.2542,-0.11458 0.5586,-0.17187 0.9131,-0.17188 0.333,10e-6 0.6284,0.0483 0.8862,0.14502 0.2578,0.0931 0.4745,0.23097 0.6499,0.41358 0.1791,0.18262 0.3133,0.40641 0.4029,0.67138 0.093,0.2614 0.1396,0.56039 0.1396,0.89697 0,0.3545 -0.057,0.67498 -0.1719,0.96143 -0.1146,0.28646 -0.2614,0.55144 -0.4404,0.79492 -0.179,0.23991 -0.3778,0.4655 -0.5962,0.67676 l -0.6338,0.61768 c -0.2077,0.20052 -0.3974,0.40283 -0.5693,0.60693 -0.1683,0.2041 -0.2936,0.42253 -0.376,0.65527 h 2.8843 v 1.24073 h -4.3452"
             style="font-size:11px;text-align:center;text-anchor:middle;fill:#ffffff"
             id="path6195" />
          <path
             d="m -1211.8727,-615.9433 v 1.54151 h -1.1816 v -1.54151 h -2.8252 v -1.1333 l 2.6211,-4.89307 h 1.3857 v 4.90381 h 0.8272 v 1.12256 h -0.8272 m -1.1816,-3.59863 c 0,-0.0609 0,-0.13964 0,-0.23633 0,-0.10025 0.01,-0.2023 0.011,-0.30615 0,-0.10384 0.01,-0.20231 0.011,-0.29541 0.01,-0.0967 0.013,-0.17187 0.016,-0.22559 -0.014,0.0394 -0.038,0.0949 -0.07,0.16651 l -0.1075,0.23632 c -0.039,0.086 -0.081,0.17009 -0.1235,0.25245 l -0.1128,0.21484 -1.4395,2.66943 h 1.8155 v -2.47607"
             style="font-size:11px;text-align:center;text-anchor:middle;fill:#ffffff"
             id="path6197" />
        </g>
        <g
           transform="rotate(-90)"
           style="font-style:normal;font-variant:normal;font-weight:bold;font-stretch:condensed;font-size:40px;line-height:125%;font-family:'Liberation Sans Narrow';-inkscape-font-specification:'Liberation Sans Narrow Bold Condensed';letter-spacing:0px;word-spacing:0px;fill:#ffffff;fill-opacity:1;stroke:none"
           id="text5762-5">
          <path
             d="m -1319.9564,63.824024 v -1.047363 c 0.1396,-0.375975 0.3115,-0.714354 0.5156,-1.015137 0.2041,-0.304359 0.4172,-0.581866 0.6392,-0.832519 0.222,-0.254229 0.4422,-0.488766 0.6606,-0.703614 0.2184,-0.21842 0.4136,-0.427893 0.5855,-0.628418 0.1754,-0.204097 0.3168,-0.408198 0.4243,-0.612304 0.111,-0.204097 0.1665,-0.420731 0.1665,-0.649903 0,-0.336582 -0.07,-0.585443 -0.2095,-0.746582 -0.1361,-0.161126 -0.3384,-0.241692 -0.6069,-0.241699 -0.265,7e-6 -0.4673,0.08773 -0.607,0.263184 -0.136,0.171881 -0.2255,0.431483 -0.2685,0.778808 l -1.2461,-0.08594 c 0.029,-0.297195 0.088,-0.576491 0.1772,-0.837891 0.093,-0.261386 0.2238,-0.490553 0.3921,-0.6875 0.1683,-0.196933 0.3796,-0.350904 0.6338,-0.461914 0.2542,-0.114576 0.5586,-0.171867 0.9131,-0.171875 0.333,8e-6 0.6284,0.04835 0.8862,0.14502 0.2578,0.09311 0.4745,0.230964 0.6499,0.413574 0.1791,0.182624 0.3133,0.406419 0.4029,0.671387 0.093,0.261399 0.1396,0.56039 0.1396,0.896972 0,0.354498 -0.057,0.674973 -0.1719,0.961426 -0.1145,0.286463 -0.2614,0.551436 -0.4404,0.794922 -0.179,0.239912 -0.3778,0.465498 -0.5962,0.676758 l -0.6338,0.617676 c -0.2077,0.200523 -0.3974,0.402834 -0.5693,0.606933 -0.1683,0.204103 -0.2936,0.422528 -0.376,0.655274 h 2.8843 v 1.240722 h -4.3452"
             style="font-size:11px;text-align:center;text-anchor:middle;fill:#ffffff"
             id="path6200" />
          <path
             d="m -1310.6429,57.453907 c 0,6e-6 -0.2632,0.521002 -0.7896,1.562988 -0.2471,0.504887 -0.4637,1.01335 -0.6499,1.525391 -0.1862,0.508466 -0.333,1.033043 -0.4404,1.57373 -0.1039,0.537111 -0.1558,1.106446 -0.1558,1.708008 h -1.2944 c 0,-0.597981 0.057,-1.165526 0.1719,-1.702637 0.1181,-0.540687 0.2775,-1.067054 0.478,-1.579101 0.2005,-0.512041 0.4315,-1.018713 0.6929,-1.52002 l 0.8378,-1.52539 h -3.083 v -1.240723 h 4.2325 v 1.197754"
             style="font-size:11px;text-align:center;text-anchor:middle;fill:#ffffff"
             id="path6202" />
        </g>
        <g
           transform="rotate(-60)"
           style="font-style:normal;font-variant:normal;font-weight:bold;font-stretch:condensed;font-size:40px;line-height:125%;font-family:'Liberation Sans Narrow';-inkscape-font-specification:'Liberation Sans Narrow Bold Condensed';letter-spacing:0px;word-spacing:0px;fill:#ffffff;fill-opacity:1;stroke:none"
           id="text5762-8">
          <path
             d="m -1062.4905,698.79785 c 0,0.34375 -0.046,0.65349 -0.1396,0.9292 -0.089,0.27214 -0.2274,0.50488 -0.4136,0.69824 -0.1862,0.19336 -0.4172,0.34196 -0.6929,0.4458 -0.2721,0.10026 -0.5908,0.15039 -0.956,0.15039 -0.4047,0 -0.7466,-0.0627 -1.0259,-0.18798 -0.2757,-0.12533 -0.5031,-0.29004 -0.6821,-0.49414 -0.1755,-0.20769 -0.308,-0.44222 -0.3975,-0.70362 -0.09,-0.26139 -0.1468,-0.52636 -0.1719,-0.79492 l 1.2569,-0.13428 c 0.018,0.16114 0.05,0.30974 0.097,0.4458 0.05,0.13249 0.1164,0.24708 0.1988,0.34375 0.082,0.0967 0.1826,0.17188 0.3008,0.22559 0.1181,0.0501 0.2578,0.0752 0.4189,0.0752 0.2972,10e-6 0.5282,-0.0895 0.6929,-0.26855 0.1647,-0.17903 0.247,-0.45296 0.247,-0.82178 0,-0.22558 -0.039,-0.40641 -0.1181,-0.54248 -0.075,-0.13606 -0.1737,-0.2399 -0.2954,-0.31152 -0.1182,-0.0752 -0.2471,-0.12532 -0.3867,-0.15039 -0.1361,-0.0251 -0.265,-0.0376 -0.3868,-0.0376 h -0.435 v -1.21924 h 0.4082 c 0.1217,10e-6 0.247,-0.0143 0.376,-0.043 0.1289,-0.0286 0.2434,-0.0806 0.3437,-0.15576 0.1038,-0.0752 0.188,-0.17903 0.2524,-0.31152 0.064,-0.13606 0.097,-0.30794 0.097,-0.51563 0,-0.31151 -0.072,-0.555 -0.2148,-0.73047 -0.1397,-0.17903 -0.3474,-0.26854 -0.6231,-0.26855 -0.2542,10e-6 -0.4601,0.0859 -0.6176,0.25781 -0.1576,0.17188 -0.2471,0.41537 -0.2686,0.73047 l -1.2407,-0.10742 c 0.036,-0.35449 0.1164,-0.66243 0.2417,-0.92383 0.1253,-0.26139 0.2829,-0.47802 0.4726,-0.6499 0.1898,-0.17187 0.4064,-0.29898 0.6499,-0.38135 0.2471,-0.0859 0.5085,-0.1289 0.7842,-0.1289 0.3652,0 0.6786,0.0537 0.94,0.16113 0.2613,0.10743 0.4762,0.25245 0.6445,0.43506 0.1683,0.18262 0.2918,0.39567 0.3706,0.63916 0.079,0.24349 0.1182,0.5031 0.1182,0.77881 0,0.22201 -0.027,0.42969 -0.081,0.62304 -0.054,0.18979 -0.1343,0.36166 -0.2417,0.51563 -0.1074,0.15039 -0.2453,0.28109 -0.4136,0.39209 -0.1647,0.10742 -0.3616,0.18799 -0.5908,0.2417 v 0.0215 c 0.2542,0.0358 0.4744,0.10743 0.6606,0.21484 0.1898,0.10385 0.3456,0.23455 0.4673,0.39209 0.1218,0.15756 0.2113,0.3366 0.2686,0.53711 0.057,0.19695 0.086,0.40642 0.086,0.62842"
             style="font-size:11px;text-align:center;text-anchor:middle;fill:#ffffff"
             id="path6205" />
          <path
             d="m -1057.5061,697.11133 c 0,0.72331 -0.055,1.33382 -0.1665,1.83154 -0.1074,0.49414 -0.2578,0.89518 -0.4512,1.20313 -0.1898,0.30436 -0.4171,0.52457 -0.6821,0.66064 -0.2614,0.13249 -0.5479,0.19873 -0.8594,0.19873 -0.3115,0 -0.598,-0.0662 -0.8594,-0.19873 -0.2614,-0.13249 -0.4869,-0.35091 -0.6767,-0.65527 -0.1862,-0.30794 -0.333,-0.70899 -0.4404,-1.20313 -0.1039,-0.49772 -0.1558,-1.11002 -0.1558,-1.83691 0,-0.76269 0.052,-1.3929 0.1558,-1.89063 0.1074,-0.50129 0.256,-0.90054 0.4458,-1.19775 0.1897,-0.29719 0.4171,-0.50488 0.6821,-0.62305 0.2685,-0.12173 0.5639,-0.18261 0.8862,-0.18261 0.3008,0 0.5801,0.0609 0.8379,0.18261 0.2614,0.11817 0.487,0.32586 0.6768,0.62305 0.1897,0.29721 0.3383,0.69646 0.4458,1.19775 0.1074,0.49773 0.1611,1.12794 0.1611,1.89063 m -1.2407,0 c 0,-0.53353 -0.016,-0.97396 -0.048,-1.32129 -0.032,-0.35091 -0.084,-0.62841 -0.1557,-0.83252 -0.072,-0.20768 -0.1647,-0.3527 -0.2793,-0.43506 -0.111,-0.0824 -0.2471,-0.12353 -0.4082,-0.12353 -0.1719,0 -0.3169,0.043 -0.4351,0.1289 -0.1182,0.0824 -0.213,0.22738 -0.2847,0.43506 -0.072,0.20769 -0.1235,0.48699 -0.1557,0.83789 -0.029,0.34734 -0.043,0.78419 -0.043,1.31055 0,0.51921 0.016,0.95247 0.048,1.2998 0.032,0.34734 0.082,0.62663 0.1503,0.83789 0.072,0.20769 0.1648,0.3545 0.2793,0.44043 0.1146,0.0859 0.2561,0.12891 0.4244,0.12891 0.1611,0 0.2989,-0.043 0.4135,-0.12891 0.1146,-0.0859 0.2077,-0.23274 0.2793,-0.44043 0.075,-0.21126 0.1289,-0.49055 0.1612,-0.83789 0.036,-0.34733 0.054,-0.78059 0.054,-1.2998"
             style="font-size:11px;text-align:center;text-anchor:middle;fill:#ffffff"
             id="path6207" />
        </g>
        <g
           transform="rotate(-30)"
           style="font-style:normal;font-variant:normal;font-weight:bold;font-stretch:condensed;font-size:40px;line-height:125%;font-family:'Liberation Sans Narrow';-inkscape-font-specification:'Liberation Sans Narrow Bold Condensed';letter-spacing:0px;word-spacing:0px;fill:#ffffff;fill-opacity:1;stroke:none"
           id="text5762-93">
          <path
             d="m -524.74011,1123.9137 c -1e-5,0.3437 -0.0466,0.6535 -0.13965,0.9292 -0.0895,0.2721 -0.22738,0.5049 -0.41357,0.6982 -0.18621,0.1934 -0.41716,0.342 -0.69288,0.4458 -0.27213,0.1003 -0.59082,0.1504 -0.95605,0.1504 -0.40463,0 -0.74658,-0.063 -1.02588,-0.188 -0.27572,-0.1253 -0.50309,-0.29 -0.68213,-0.4941 -0.17545,-0.2077 -0.30794,-0.4422 -0.39746,-0.7036 -0.0895,-0.2614 -0.14681,-0.5264 -0.17187,-0.7949 l 1.25683,-0.1343 c 0.0179,0.1611 0.0501,0.3097 0.0967,0.4458 0.0501,0.1325 0.11637,0.2471 0.19873,0.3437 0.0824,0.097 0.18262,0.1719 0.30078,0.2256 0.11816,0.05 0.25781,0.075 0.41895,0.075 0.2972,0 0.52815,-0.09 0.69287,-0.2685 0.16471,-0.1791 0.24707,-0.453 0.24707,-0.8218 0,-0.2256 -0.0394,-0.4064 -0.11816,-0.5425 -0.0752,-0.1361 -0.17367,-0.2399 -0.29541,-0.3115 -0.11817,-0.075 -0.24708,-0.1253 -0.38672,-0.1504 -0.13607,-0.025 -0.26498,-0.038 -0.38672,-0.038 h -0.43506 v -1.2192 h 0.4082 c 0.12174,0 0.24707,-0.014 0.37598,-0.043 0.1289,-0.029 0.24349,-0.081 0.34375,-0.1558 0.10384,-0.075 0.18798,-0.179 0.25244,-0.3115 0.0644,-0.1361 0.0967,-0.3079 0.0967,-0.5156 0,-0.3115 -0.0716,-0.555 -0.21484,-0.7305 -0.13966,-0.179 -0.34734,-0.2685 -0.62305,-0.2685 -0.25423,0 -0.46013,0.086 -0.61768,0.2578 -0.15755,0.1718 -0.24707,0.4153 -0.26855,0.7304 l -1.24072,-0.1074 c 0.0358,-0.3545 0.11637,-0.6624 0.2417,-0.9238 0.12532,-0.2614 0.28287,-0.478 0.47265,-0.6499 0.18978,-0.1719 0.40641,-0.299 0.6499,-0.3814 0.24707,-0.086 0.50847,-0.1289 0.78418,-0.1289 0.36524,0 0.67855,0.054 0.93995,0.1612 0.26138,0.1074 0.47623,0.2524 0.64453,0.435 0.16829,0.1826 0.29182,0.3957 0.3706,0.6392 0.0788,0.2435 0.11816,0.5031 0.11817,0.7788 -10e-6,0.222 -0.0269,0.4297 -0.0806,0.623 -0.0537,0.1898 -0.13428,0.3617 -0.2417,0.5157 -0.10743,0.1504 -0.24528,0.2811 -0.41357,0.3921 -0.16472,0.1074 -0.36166,0.1879 -0.59082,0.2417 v 0.021 c 0.25422,0.036 0.47444,0.1075 0.66064,0.2149 0.18977,0.1038 0.34554,0.2345 0.46729,0.3921 0.12174,0.1575 0.21125,0.3366 0.26855,0.5371 0.0573,0.1969 0.0859,0.4064 0.0859,0.6284"
             style="font-size:11px;text-align:center;text-anchor:middle;fill:#ffffff"
             id="path6210" />
          <path
             d="m -519.71277,1123.9137 c 0,0.3437 -0.0466,0.6535 -0.13965,0.9292 -0.0895,0.2721 -0.22738,0.5049 -0.41357,0.6982 -0.1862,0.1934 -0.41716,0.342 -0.69287,0.4458 -0.27214,0.1003 -0.59083,0.1504 -0.95606,0.1504 -0.40462,0 -0.74658,-0.063 -1.02588,-0.188 -0.27571,-0.1253 -0.50309,-0.29 -0.68212,-0.4941 -0.17546,-0.2077 -0.30795,-0.4422 -0.39747,-0.7036 -0.0895,-0.2614 -0.14681,-0.5264 -0.17187,-0.7949 l 1.25684,-0.1343 c 0.0179,0.1611 0.0501,0.3097 0.0967,0.4458 0.0501,0.1325 0.11638,0.2471 0.19874,0.3437 0.0823,0.097 0.18261,0.1719 0.30078,0.2256 0.11816,0.05 0.25781,0.075 0.41894,0.075 0.2972,0 0.52816,-0.09 0.69287,-0.2685 0.16471,-0.1791 0.24707,-0.453 0.24707,-0.8218 0,-0.2256 -0.0394,-0.4064 -0.11816,-0.5425 -0.0752,-0.1361 -0.17367,-0.2399 -0.29541,-0.3115 -0.11817,-0.075 -0.24707,-0.1253 -0.38672,-0.1504 -0.13607,-0.025 -0.26498,-0.038 -0.38672,-0.038 h -0.43506 v -1.2192 h 0.40821 c 0.12174,0 0.24706,-0.014 0.37597,-0.043 0.12891,-0.029 0.24349,-0.081 0.34375,-0.1558 0.10384,-0.075 0.18799,-0.179 0.25244,-0.3115 0.0644,-0.1361 0.0967,-0.3079 0.0967,-0.5156 0,-0.3115 -0.0716,-0.555 -0.21484,-0.7305 -0.13965,-0.179 -0.34733,-0.2685 -0.62305,-0.2685 -0.25423,0 -0.46012,0.086 -0.61767,0.2578 -0.15756,0.1718 -0.24707,0.4153 -0.26856,0.7304 l -1.24072,-0.1074 c 0.0358,-0.3545 0.11637,-0.6624 0.2417,-0.9238 0.12532,-0.2614 0.28288,-0.478 0.47266,-0.6499 0.18977,-0.1719 0.40641,-0.299 0.6499,-0.3814 0.24707,-0.086 0.50846,-0.1289 0.78418,-0.1289 0.36523,0 0.67854,0.054 0.93994,0.1612 0.26139,0.1074 0.47623,0.2524 0.64453,0.435 0.16829,0.1826 0.29183,0.3957 0.37061,0.6392 0.0788,0.2435 0.11816,0.5031 0.11816,0.7788 0,0.222 -0.0269,0.4297 -0.0806,0.623 -0.0537,0.1898 -0.13428,0.3617 -0.2417,0.5157 -0.10742,0.1504 -0.24528,0.2811 -0.41357,0.3921 -0.16472,0.1074 -0.36166,0.1879 -0.59082,0.2417 v 0.021 c 0.25423,0.036 0.47444,0.1075 0.66064,0.2149 0.18978,0.1038 0.34554,0.2345 0.46729,0.3921 0.12174,0.1575 0.21126,0.3366 0.26855,0.5371 0.0573,0.1969 0.0859,0.4064 0.0859,0.6284"
             style="font-size:11px;text-align:center;text-anchor:middle;fill:#ffffff"
             id="path6212" />
        </g>
      </g>
    </g>
  </g>
</svg>
