<?xml version="1.0" encoding="UTF-8" standalone="no"?>
<svg
   xmlns:dc="http://purl.org/dc/elements/1.1/"
   xmlns:cc="http://creativecommons.org/ns#"
   xmlns:rdf="http://www.w3.org/1999/02/22-rdf-syntax-ns#"
   xmlns:svg="http://www.w3.org/2000/svg"
   xmlns="http://www.w3.org/2000/svg"
   width="300"
   height="300"
   id="svg2"
   version="1.1">
  <defs
     id="defs4" />
  <metadata
     id="metadata7">
    <rdf:RDF>
      <cc:Work
         rdf:about="">
        <dc:format>image/svg+xml</dc:format>
        <dc:type
           rdf:resource="http://purl.org/dc/dcmitype/StillImage" />
        <dc:title></dc:title>
      </cc:Work>
    </rdf:RDF>
  </metadata>
  <path
     id="rect11308-0-8-0-3"
     d="M 0,-5.0000001e-7 V 209.8125 300 h 75 150 75 V 209.8125 -5e-7 Z M 75,6.4570315 H 225 V 25.521483 H 75 Z M 25,37.499999 h 36 14 v 12.5 h 15 120 15 v -12.5 h 6 40 V 209.8125 H 231 225 195 105 75 61 25 Z m 250,12.5 h 14.5 4.5 V 75 83.562499 166.4375 175 200 H 289.5 275 Z M 150,234 c 28.93164,0 55.25025,11.08222 75,29.21875 V 271.5 c 5.4818,5.5915 10.33996,11.7998 14.46875,18.5 H 225 75 60.5625 C 64.68353,283.3124 69.53323,277.11445 75,271.53125 v -8.3125 C 94.74975,245.08223 121.06836,234.00001 150,234 Z"
     style="fill:#000000;fill-opacity:1;stroke:none" />
</svg>
