<?xml version="1.0" encoding="UTF-8" standalone="no"?>
<svg
   xmlns:dc="http://purl.org/dc/elements/1.1/"
   xmlns:cc="http://creativecommons.org/ns#"
   xmlns:rdf="http://www.w3.org/1999/02/22-rdf-syntax-ns#"
   xmlns:svg="http://www.w3.org/2000/svg"
   xmlns="http://www.w3.org/2000/svg"
   xmlns:xlink="http://www.w3.org/1999/xlink"
   version="1.1"
   id="svg2"
   height="128"
   width="128">
  <defs
     id="defs4">
    <linearGradient
       id="linearGradient3955">
      <stop
         id="stop3957"
         offset="0"
         style="stop-color:#032a63;stop-opacity:1;" />
      <stop
         id="stop3959"
         offset="1"
         style="stop-color:#0846a4;stop-opacity:1;" />
    </linearGradient>
    <linearGradient
       gradientUnits="userSpaceOnUse"
       y2="924.7226"
       x2="63.602776"
       y1="1051.7493"
       x1="66.922607"
       id="linearGradient3961"
       xlink:href="#linearGradient3955" />
    <linearGradient
       y2="924.7226"
       x2="63.602776"
       y1="1051.7493"
       x1="66.922607"
       gradientUnits="userSpaceOnUse"
       id="linearGradient3065"
       xlink:href="#linearGradient3955" />
    <linearGradient
       y2="924.7226"
       x2="63.602776"
       y1="1051.7493"
       x1="66.922607"
       gradientUnits="userSpaceOnUse"
       id="linearGradient2997"
       xlink:href="#linearGradient3955" />
  </defs>
  <metadata
     id="metadata7">
    <rdf:RDF>
      <cc:Work
         rdf:about="">
        <dc:format>image/svg+xml</dc:format>
        <dc:type
           rdf:resource="http://purl.org/dc/dcmitype/StillImage" />
        <dc:title></dc:title>
      </cc:Work>
    </rdf:RDF>
  </metadata>
  <g
     transform="translate(0,-924.36218)"
     id="layer1">
    <g
       transform="translate(32,-32.000001)"
       id="g3911">
      <rect
         style="fill:#000000;fill-opacity:1;stroke:none"
         id="rect2985-1"
         width="128"
         height="128"
         x="-32"
         y="956.36218" />
      <g
         id="text3755-7"
         style="font-size:48.78742981px;font-style:normal;font-variant:normal;font-weight:bold;font-stretch:normal;line-height:125%;letter-spacing:0px;word-spacing:0px;fill:#ffff00;fill-opacity:1;stroke:none;font-family:hhh;-inkscape-font-specification:hhh Bold"
         transform="scale(0.75316716,1.3277265)">
        <path
           id="path2994"
           style="font-size:87.81737518px;text-align:center;text-anchor:middle;fill:#ffff00;font-family:DejaVu Sans;-inkscape-font-specification:DejaVu Sans Bold"
           d="m 63.541119,738.46616 0,13.54995 c -3.516174,-1.5722 -6.946537,-2.75854 -10.291098,-3.55901 -3.344647,-0.80036 -6.503439,-1.20057 -9.476387,-1.20062 -3.94495,5e-5 -6.860759,0.54319 -8.747434,1.62942 -1.886724,1.08633 -2.830073,2.77293 -2.830052,5.05979 -2.1e-5,1.71523 0.636025,3.05164 1.908141,4.00924 1.27207,0.95769 3.580418,1.77954 6.925052,2.46558 l 7.032251,1.41502 c 7.117965,1.42936 12.17775,3.60192 15.17937,6.5177 3.001515,2.91584 4.502299,7.06086 4.502356,12.43508 -5.7e-5,7.06085 -2.094008,12.31359 -6.281858,15.75824 -4.187952,3.44466 -10.584149,5.16699 -19.188611,5.16699 -4.059294,0 -8.13285,-0.38592 -12.22068,-1.15775 -4.087868,-0.77183 -8.175717,-1.91529 -12.263559,-3.43037 l 0,-13.93586 c 4.087842,2.17258 8.039906,3.80915 11.856203,4.90971 3.81626,1.10059 7.496753,1.65088 11.041491,1.65087 3.601851,10e-6 6.360435,-0.60031 8.275759,-1.80094 1.915248,-1.20062 2.872891,-2.9158 2.872931,-5.14555 -4e-5,-2.00103 -0.65038,-3.54469 -1.95102,-4.631 -1.300719,-1.08626 -3.89493,-2.05819 -7.782644,-2.91581 l -6.389057,-1.41503 c -6.403368,-1.37211 -11.084384,-3.55897 -14.043061,-6.56057 -2.958699,-3.00154 -4.438043,-7.04651 -4.438037,-12.13492 -6e-6,-6.37471 2.058212,-11.27727 6.174659,-14.7077 4.116423,-3.4303 10.033799,-5.14548 17.752146,-5.14555 3.516091,7e-5 7.132265,0.26449 10.848533,0.79328 3.716185,0.52891 7.56105,1.32218 11.534606,2.37981 z" />
      </g>
      <path
         style="fill:#ffff00;fill-opacity:1;stroke:none"
         d="m -28,960.3622 0,8 0,104 0,8 8,0 112,0 0,-8 0,-112 -112,0 -8,0 z m 8,8 104,0 0,104 -104,0 0,-104 z"
         id="rect3013-0" />
    </g>
  </g>
</svg>
